<?xml version="1.0" encoding="UTF-8"?>
<svg id="Layer_1" data-name="Layer 1" xmlns="http://www.w3.org/2000/svg" xmlns:xlink="http://www.w3.org/1999/xlink" viewBox="0 0 407.99 276.96">
  <defs>
    <style>
      .cls-1, .cls-2, .cls-3 {
        fill: #fff;
      }

      .cls-4 {
        clip-path: url(#clippath-2);
      }

      .cls-2 {
        isolation: isolate;
        opacity: .5;
      }

      .cls-5 {
        clip-path: url(#clippath-1);
      }

      .cls-6 {
        clip-path: url(#clippath-4);
      }

      .cls-3, .cls-7, .cls-8 {
        stroke: #263238;
        stroke-linecap: round;
        stroke-linejoin: round;
      }

      .cls-9 {
        clip-path: url(#clippath);
      }

      .cls-10, .cls-7 {
        fill: none;
      }

      .cls-11 {
        clip-path: url(#clippath-3);
      }

      .cls-12 {
        opacity: .2;
      }

      .cls-8, .cls-13 {
        fill: #263238;
      }

      .cls-14 {
        clip-path: url(#clippath-5);
      }
    </style>
    <clipPath id="clippath">
      <path class="cls-10" d="m149.32,135.72s-28.51,6.05-52.27,19.44-42.33,24.19-42.33,29.36-9.51,87.26-9.51,87.26h216s-21.17-45.36-24.62-64.8-7.35-32-18.58-44.49-44.07-28.49-68.69-26.77Z"/>
    </clipPath>
    <clipPath id="clippath-1">
      <path class="cls-10" d="m139.83,138.75c-7.85,4.87-12.84,13.24-13.4,22.46-.86,15.55,0,31.54-.86,40.17s-6.91,15.56-2.16,15.12,15.55-17.71,19.44-17.71,5.18,8.21,6.91,10.8,7.8,3.68,7.8,3.68c0,0,5.59-6.7,5.59-8.86s-1.73-9.51,3-8.64,15.11,17.28,15.55,12.09-4.76-13-4.76-25.48-6-27.22-14.68-36.29-13.59-8.01-22.43-7.34Z"/>
    </clipPath>
    <clipPath id="clippath-2">
      <path class="cls-10" d="m143.42,138.86c-3.32,7.92-5.08,16.41-5.18,25,0,13.66,7.06,27.79,9.89,34.38s9.42,15.07,9.42,15.07c0,0-.48-17.42,3.76-25.9s8-14.6,8-14.6c0,0-5.18-5.18-12.72-16.95s-13.17-17-13.17-17Z"/>
    </clipPath>
    <clipPath id="clippath-3">
      <path class="cls-10" d="m214.92,105.68s-1.31,19.35-3.4,26.15-5,27.73-11.25,36.88-14.38,17-23.54,17.53-21.44-15.7-28.51-26.16-7.84-20.92-10.2-31.12-2.87-22,.79-31.13,22-20.4,37.4-19.09,34.78,9.42,38.71,15.43c2.29,3.5,2.29,8.01,0,11.51Z"/>
    </clipPath>
    <clipPath id="clippath-4">
      <path class="cls-10" d="m144.56,67.52s-17,5.5-18.31,12.3,7.33,30.6,7.07,33.47-2.88,5.24,0,9.42,8.1,10.46,10.2,7.06-.79-8.37,2.61-10.46,8.11-5.49,5.49-9.94-1.3-11,4.19-11.77,10.2-4.44,7.32-.26-11.24,14.39-6.8,15.17,22-11,22-11c0,0-6,12-2.88,12.81s27.73-15.43,27.73-15.43c0,0,11.77,15.43,14.12,14.38s.79-9.67.79-9.67c0,0,1.83,11.51,5.49,12s8.63-5.76,7.06-9.68-4.21-9.4-4.21-9.4c0,0,5.23-1.31,7.32-3.67s1.83-2.61-2.62-3.4-7.84-5.75-12-10.2-11-10.46-11-10.46c0,0,7.84,3.4,3.66-.52s-26.42-12.82-38.45-12.82-16.51,6.29-16.51,6.29c0,0,2.09-7.85-.27-6.8s-5,7.32-5,7.32c0,0-5.49-1.57-8.36.27s-3.67,3.66-1.31,3.66c1.32-.02,2.65.16,3.92.52l-1.25.81Z"/>
    </clipPath>
    <clipPath id="clippath-5">
      <path class="cls-10" d="m144.56,135.23s-6.27-14.64-11.77-14.64-5.23,12.29-1.83,18.83,10.73,9.15,12.82,5.23"/>
    </clipPath>
  </defs>
  <g id="freepik--Codes--inject-37">
    <path class="cls-13" d="m247.35,68.96h-3.24c-.44,0-.8-.36-.8-.8s.36-.8.8-.8h3.24c.44,0,.8.36.8.8s-.36.8-.8.8Zm.8,2.9c0-.44-.36-.8-.8-.8h-3.24c-.44,0-.8.36-.8.8s.36.8.8.8h3.24c.44,0,.8-.36.8-.8h0s0,0,0,0Zm0,3.7c0-.44-.36-.8-.8-.8h-3.24c-.44,0-.8.36-.8.8s.36.8.8.8h3.24c.44,0,.8-.36.8-.8,0-.01,0-.03,0-.04v.04Zm0,3.7c0-.44-.36-.8-.8-.8h-3.24c-.44,0-.8.36-.8.8s.36.8.8.8h3.24c.44,0,.8-.36.8-.8h0Zm0,3.7c0-.44-.36-.8-.8-.8h-3.24c-.44.05-.76.45-.71.88.04.37.33.66.71.71h3.24c.44,0,.79-.34.8-.78,0,0,0,0,0-.01h0Zm0,3.69c0-.44-.35-.79-.79-.79,0,0,0,0-.01,0h-3.24c-.44.05-.76.45-.71.88.04.37.33.66.71.71h3.24c.44,0,.8-.36.8-.8h0Zm0,3.7c0-.44-.36-.8-.8-.8h-3.24c-.44,0-.8.36-.8.8s.36.8.8.8h3.24c.44,0,.8-.36.8-.8h0Zm0,3.7c0-.44-.36-.8-.8-.8h-3.24c-.44,0-.8.36-.8.8s.36.8.8.8h3.24c.44,0,.8-.36.8-.8h0Zm12.1-25.89c0-.44-.34-.79-.78-.8,0,0,0,0-.01,0h-8.5c-.44,0-.8.36-.8.8s.36.8.8.8h8.5c.44,0,.79-.35.79-.79,0,0,0,0,0-.01h0Zm0,3.7c0-.44-.34-.79-.78-.8,0,0,0,0-.01,0h-8.5c-.44,0-.8.36-.8.8s.36.8.8.8h8.5c.44,0,.79-.35.79-.79,0,0,0,0,0-.01h0Zm0,3.7c0-.44-.34-.79-.78-.8,0,0,0,0-.01,0h-8.5c-.44,0-.8.36-.8.8s.36.8.8.8h8.5c.44,0,.79-.35.79-.79,0-.02,0-.03,0-.05v.04Zm0,3.7c0-.44-.34-.79-.78-.8,0,0,0,0-.01,0h-8.5c-.44,0-.8.36-.8.8s.36.8.8.8h8.5c.44,0,.79-.35.79-.79,0,0,0,0,0-.01h0Zm0,3.7c0-.44-.34-.79-.78-.8,0,0,0,0-.01,0h-8.5c-.44-.05-.83.27-.88.71-.05.44.27.83.71.88.06,0,.12,0,.18,0h8.5c.44,0,.79-.35.79-.79h0Zm10.18,3.69c0-.44-.35-.79-.79-.79,0,0,0,0-.01,0h-8.5c-.44-.05-.83.27-.88.71-.05.44.27.83.71.88.06,0,.12,0,.18,0h8.5c.44,0,.8-.36.8-.8h0Zm0,3.7c0-.44-.36-.8-.8-.8h-8.5c-.44,0-.8.36-.8.8s.36.8.8.8h8.5c.44,0,.8-.36.8-.8h0Zm0,3.7c0-.44-.36-.8-.8-.8h-8.5c-.44,0-.8.36-.8.8s.36.8.8.8h8.5c.44,0,.8-.36.8-.8h0Zm-6.44-25.89c-.05-.51-.51-.88-1.02-.83-.44.05-.78.39-.83.83-.05.51.32.97.83,1.02.51.05.97-.32,1.02-.83,0-.06,0-.13,0-.19Zm2.78,0c0-.51-.42-.93-.93-.93s-.93.42-.93.93c0,.51.42.93.93.93h0c.51,0,.93-.42.93-.93h0Zm2.77,0c-.05-.51-.51-.88-1.02-.83-.44.05-.78.39-.83.83-.05.51.32.97.83,1.02.51.05.97-.32,1.02-.83,0-.06,0-.13,0-.19Zm2.77,0c0-.51-.42-.92-.93-.91-.51,0-.92.42-.91.93,0,.5.42.91.92.91.51,0,.92-.41.92-.92,0,0,0,0,0-.01h0Zm2.78,0c0-.51-.42-.93-.93-.93s-.93.42-.93.93c0,.51.42.93.93.93h0c.51,0,.93-.42.93-.93h0s0,0,0,0Zm2.77,0c-.05-.51-.51-.88-1.02-.83-.44.05-.78.39-.83.83-.05.51.32.97.83,1.02.51.05.97-.32,1.02-.83,0-.06,0-.13,0-.19Zm-13.87,7.36c0-.51-.41-.93-.92-.94-.51,0-.93.41-.94.92s.41.93.92.94c0,0,.01,0,.02,0,.51,0,.91-.41.92-.92Zm2.78,0c.05-.51-.32-.97-.83-1.02-.51-.05-.97.32-1.02.83,0,.06,0,.13,0,.19.05.51.51.88,1.02.83.44-.05.78-.39.83-.83Zm2.77,0c0-.51-.41-.93-.92-.94-.51,0-.93.41-.94.92s.41.93.92.94c0,0,.01,0,.02,0,.51,0,.91-.41.92-.92Zm2.77,0c0-.51-.41-.92-.92-.92s-.92.41-.92.92.41.92.92.92c.51,0,.91-.41.92-.92h0Zm2.78,0c.05-.51-.32-.97-.83-1.02-.51-.05-.97.32-1.02.83,0,.06,0,.13,0,.19.05.51.51.88,1.02.83.44-.05.78-.39.83-.83Zm2.77,0c0-.51-.41-.93-.92-.94-.51,0-.93.41-.94.92s.41.93.92.94c0,0,.01,0,.02,0,.49-.02.89-.43.89-.92h.03Zm-4.39,10.63c-.05-.51-.51-.88-1.02-.83-.44.05-.78.39-.83.83-.05.51.32.97.83,1.02.51.05.97-.32,1.02-.83,0-.06,0-.13,0-.19Zm2.77,0c0-.51-.42-.92-.93-.91-.51,0-.92.42-.91.93,0,.5.42.91.92.91.5,0,.9-.39.92-.89v-.04Zm2.78,0c0-.51-.42-.93-.93-.93s-.93.42-.93.93c0,.51.42.93.93.93h0c.5,0,.91-.39.93-.89v-.04Zm2.77,0c-.05-.51-.51-.88-1.02-.83-.44.05-.78.39-.83.83-.05.51.32.97.83,1.02.51.05.97-.32,1.02-.83,0-.06,0-.13,0-.19Zm2.78,0c0-.51-.42-.93-.93-.93s-.93.42-.93.93c0,.51.42.93.93.93h0c.5,0,.91-.39.93-.89v-.04Zm2.77,0c0-.51-.42-.93-.93-.93s-.93.42-.93.93c0,.51.42.93.93.93h0c.5,0,.91-.39.93-.89v-.04Zm-13.87,7.63c0-.51-.41-.93-.92-.94-.51,0-.93.41-.94.92s.41.93.92.94c0,0,.01,0,.02,0,.49,0,.9-.39.92-.88v-.04Zm2.77,0c0-.51-.41-.92-.92-.92s-.92.41-.92.92.41.92.92.92c.49,0,.9-.39.92-.88v-.04Zm2.78,0c0-.51-.41-.93-.92-.94-.51,0-.93.41-.94.92s.41.93.92.94c0,0,0,0,0,0,.49,0,.9-.39.93-.88v-.04Zm2.77,0c0-.51-.41-.93-.92-.94-.51,0-.93.41-.94.92s.41.93.92.94c0,0,.01,0,.02,0,.51.02.94-.37.96-.88,0,0,0,0,0,0l-.04-.04Zm2.78,0c0-.51-.41-.93-.92-.94-.51,0-.93.41-.94.92s.41.93.92.94c0,0,0,0,0,0,.49,0,.9-.39.93-.88v-.04Zm2.77,0c0-.51-.41-.93-.92-.94-.51,0-.93.41-.94.92s.41.93.92.94c0,0,0,0,0,0,.5,0,.91-.38.93-.88v-.04Z"/>
    <path class="cls-13" d="m247.35,98.52h-3.24c-.44,0-.8-.36-.8-.8s.36-.8.8-.8h3.24c.44,0,.8.36.8.8s-.36.8-.8.8Zm.8,2.9c0-.44-.36-.8-.8-.8h-3.24c-.44.05-.76.45-.71.88.04.37.33.66.71.71h3.24c.43,0,.78-.33.8-.75v-.04Zm0,3.69c0-.44-.35-.79-.79-.79,0,0,0,0-.01,0h-3.24c-.44.05-.76.45-.71.88.04.37.33.66.71.71h3.24c.43,0,.78-.33.8-.76v-.04Zm0,3.7c0-.44-.36-.8-.8-.8h-3.24c-.44,0-.8.36-.8.8s.36.8.8.8h3.24c.43,0,.78-.33.8-.76v-.04Zm0,3.7c0-.44-.36-.8-.8-.8h-3.24c-.44,0-.8.36-.8.8s.36.8.8.8h3.24c.44,0,.79-.35.8-.79h0Zm0,3.7c0-.44-.36-.8-.8-.8h-3.24c-.44,0-.8.36-.8.8s.36.8.8.8h3.24c.43,0,.78-.33.8-.76v-.04Zm0,3.7c0-.44-.36-.8-.8-.8h-3.24c-.44,0-.8.36-.8.8s.36.8.8.8h3.24c.43,0,.78-.33.8-.76v-.04Zm0,3.7c0-.44-.36-.8-.8-.8h-3.24c-.44,0-.79.35-.79.79,0,0,0,0,0,.01,0,.44.35.79.79.79h3.24c.43,0,.78-.33.8-.75v-.04Zm12.1-25.89c0-.44-.34-.79-.78-.8,0,0,0,0-.01,0h-8.5c-.44,0-.8.36-.8.8s.36.8.8.8h8.5c.42,0,.77-.34.79-.76v-.04Zm0,3.7c0-.44-.34-.79-.78-.8,0,0,0,0-.01,0h-8.5c-.44-.05-.83.27-.88.71-.05.44.27.83.71.88.06,0,.12,0,.18,0h8.5c.42,0,.77-.33.79-.75v-.04Zm0,3.69c0-.44-.35-.79-.79-.79h-8.5c-.44-.05-.83.27-.88.71-.05.44.27.83.71.88.06,0,.12,0,.18,0h8.5c.42,0,.77-.34.79-.76v-.04Zm0,3.7c0-.44-.34-.79-.78-.8,0,0,0,0-.01,0h-8.5c-.44,0-.8.36-.8.8s.36.8.8.8h8.5c.42,0,.77-.34.79-.76v-.04Zm0,3.7c0-.44-.34-.79-.78-.8,0,0,0,0-.01,0h-8.5c-.44,0-.8.36-.8.8s.36.8.8.8h8.5c.44,0,.79-.35.79-.79h0s0-.01,0-.01Zm10.18,3.7c0-.44-.36-.8-.8-.8h-8.5c-.44,0-.8.36-.8.8s.36.8.8.8h8.5c.43,0,.78-.33.8-.76v-.04Zm0,3.7c0-.44-.36-.8-.8-.8h-8.5c-.44,0-.8.36-.8.8s.36.8.8.8h8.5c.43,0,.78-.33.8-.76v-.04Zm0,3.7c0-.44-.36-.8-.8-.8h-8.5c-.44,0-.8.36-.8.8,0,.44.35.79.79.79,0,0,0,0,.01,0h8.5c.43,0,.78-.33.8-.75v-.04Zm-6.44-25.89c0-.51-.41-.93-.92-.94-.51,0-.93.41-.94.92s.41.93.92.94c0,0,.01,0,.02,0,.49,0,.89-.39.92-.88v-.04Zm2.78,0c.05-.51-.32-.97-.83-1.02-.51-.05-.97.32-1.02.83,0,.06,0,.13,0,.19.05.51.51.88,1.02.83.44-.05.78-.39.83-.83Zm2.77,0c0-.51-.41-.93-.92-.94-.51,0-.93.41-.94.92s.41.93.92.94c0,0,.01,0,.02,0,.49,0,.89-.39.92-.88v-.04Zm2.77,0c0-.51-.41-.92-.92-.92s-.92.41-.92.92.41.92.92.92c.49,0,.89-.39.92-.88v-.04Zm2.78,0c.05-.51-.32-.97-.83-1.02-.51-.05-.97.32-1.02.83,0,.06,0,.13,0,.19.05.51.51.88,1.02.83.44-.05.78-.39.83-.83Zm2.77,0c0-.51-.41-.93-.92-.94-.51,0-.93.41-.94.92s.41.93.92.94c0,0,.01,0,.02,0,.48-.02.86-.4.89-.88l.03-.04Zm-13.87,7.39c-.05-.51-.51-.88-1.02-.83-.44.05-.78.39-.83.83-.05.51.32.97.83,1.02.51.05.97-.32,1.02-.83,0-.06,0-.13,0-.19Zm2.78,0c0-.51-.42-.93-.93-.93s-.93.42-.93.93c0,.51.42.93.93.93h0c.5,0,.91-.39.93-.89v-.04Zm2.77,0c-.05-.51-.51-.88-1.02-.83-.44.05-.78.39-.83.83-.05.51.32.97.83,1.02.51.05.97-.32,1.02-.83,0-.06,0-.13,0-.19Zm2.77,0c0-.51-.42-.92-.93-.91-.51,0-.92.42-.91.93,0,.5.42.91.92.91.5,0,.9-.39.92-.89v-.04Zm2.78,0c0-.51-.42-.93-.93-.93s-.93.42-.93.93c0,.51.42.93.93.93h0c.5,0,.91-.39.93-.89v-.04Zm2.77,0c-.05-.51-.51-.88-1.02-.83-.44.05-.78.39-.83.83-.05.51.32.97.83,1.02.51.05.97-.32,1.02-.83,0-.06,0-.13,0-.19Zm-4.39,10.64c0-.51-.41-.93-.92-.94-.51,0-.93.41-.94.92s.41.93.92.94c0,0,.01,0,.02,0,.49,0,.89-.39.92-.88v-.04Zm2.77,0c0-.51-.41-.92-.92-.92s-.92.41-.92.92.41.92.92.92c.49,0,.89-.39.92-.88v-.04Zm2.78,0c.05-.51-.32-.97-.83-1.02-.51-.05-.97.32-1.02.83,0,.06,0,.13,0,.19.05.51.51.88,1.02.83.44-.05.78-.39.83-.83Zm2.77,0c0-.51-.41-.93-.92-.94-.51,0-.93.41-.94.92s.41.93.92.94c0,0,.01,0,.02,0,.51.02.93-.37.96-.88l-.04-.04Zm2.78,0c.05-.51-.32-.97-.83-1.02-.51-.05-.97.32-1.02.83,0,.06,0,.13,0,.19.05.51.51.88,1.02.83.44-.05.78-.39.83-.83Zm2.77,0c.05-.51-.32-.97-.83-1.02-.51-.05-.97.32-1.02.83,0,.06,0,.13,0,.19.05.51.51.88,1.02.83.44-.05.78-.39.83-.83Zm-13.87,7.63c0-.51-.41-.93-.92-.94s-.93.41-.94.92c0,.51.41.93.92.94,0,0,.01,0,.02,0,.49,0,.9-.39.92-.88v-.04Zm2.77,0c0-.51-.41-.92-.92-.92s-.92.41-.92.92.41.92.92.92c.49,0,.9-.39.92-.88v-.04Zm2.78,0c.05-.51-.32-.97-.83-1.02-.51-.05-.97.32-1.02.83,0,.06,0,.13,0,.19.05.51.51.88,1.02.83.44-.05.78-.39.83-.83Zm2.77,0c0-.51-.41-.93-.92-.94s-.93.41-.94.92c0,.51.41.93.92.94,0,0,.01,0,.02,0,.51.02.94-.37.96-.88h0s-.04-.04-.04-.04Zm2.78,0c.05-.51-.32-.97-.83-1.02-.51-.05-.97.32-1.02.83,0,.06,0,.13,0,.19.05.51.51.88,1.02.83.44-.05.78-.39.83-.83Zm2.77,0c0-.51-.41-.93-.92-.94-.51,0-.93.41-.94.92,0,.51.41.93.92.94,0,0,0,0,0,0,.5,0,.91-.38.93-.88v-.04Z"/>
    <path class="cls-13" d="m247.35,128.87h-3.24c-.44,0-.8-.36-.8-.8s.36-.8.8-.8h3.24c.44,0,.8.36.8.8s-.36.8-.8.8Zm.8,2.9c0-.44-.36-.8-.8-.8h-3.24c-.44.05-.76.45-.71.88.04.37.33.66.71.71h3.24c.44,0,.79-.34.8-.78,0,0,0,0,0-.01h0Zm0,3.69c0-.44-.35-.79-.79-.79,0,0,0,0-.01,0h-3.24c-.44.05-.76.45-.71.88.04.37.33.66.71.71h3.24c.44,0,.8-.36.8-.8h0Zm0,3.7c0-.44-.36-.8-.8-.8h-3.24c-.44,0-.8.36-.8.8s.36.8.8.8h3.24c.44,0,.8-.36.8-.8h0s0,0,0,0Zm0,3.7c0-.44-.36-.8-.8-.8h-3.24c-.44,0-.8.36-.8.8s.36.8.8.8h3.24c.44,0,.8-.36.8-.8h0s0,0,0,0Zm0,3.7c0-.44-.36-.8-.8-.8h-3.24c-.44,0-.8.36-.8.8s.36.8.8.8h3.24c.44,0,.8-.36.8-.8,0-.01,0-.03,0-.04v.04Zm0,3.7c0-.44-.36-.8-.8-.8h-3.24c-.44,0-.8.36-.8.8s.36.8.8.8h3.24c.44,0,.8-.36.8-.8h0s0,0,0,0Zm0,3.7c0-.44-.36-.8-.8-.8h-3.24c-.44,0-.79.35-.79.79,0,0,0,0,0,.01,0,.44.35.79.79.79h3.24c.44,0,.79-.34.8-.78,0,0,0,0,0-.01h0Zm12.1-25.89c0-.44-.34-.79-.78-.8,0,0,0,0-.01,0h-8.5c-.44,0-.8.36-.8.8s.36.8.8.8h8.5c.44,0,.79-.35.79-.79,0,0,0,0,0-.01h0Zm0,3.7c0-.44-.34-.79-.78-.8,0,0,0,0-.01,0h-8.5c-.44-.05-.83.27-.88.71-.05.44.27.83.71.88.06,0,.12,0,.18,0h8.5c.44,0,.79-.35.79-.79h0s0,0,0,0Zm0,3.69c0-.44-.35-.79-.79-.79h-8.5c-.44-.05-.83.27-.88.71-.05.44.27.83.71.88.06,0,.12,0,.18,0h8.5c.44,0,.79-.35.79-.79,0,0,0,0,0-.01h0Zm0,3.7c0-.44-.34-.79-.78-.8,0,0,0,0-.01,0h-8.5c-.44,0-.8.36-.8.8s.36.8.8.8h8.5c.44,0,.79-.35.79-.79,0,0,0,0,0-.01h0Zm0,3.7c0-.44-.34-.79-.78-.8,0,0,0,0-.01,0h-8.5c-.44,0-.8.36-.8.8s.36.8.8.8h8.5c.44,0,.79-.35.79-.79,0,0,0,0,0-.01h0Zm10.18,3.66c0-.44-.36-.8-.8-.8h-8.5c-.44,0-.8.36-.8.8s.36.8.8.8h8.5c.44,0,.8-.36.8-.8h0Zm0,3.7c0-.44-.36-.8-.8-.8h-8.5c-.44,0-.8.36-.8.8s.36.8.8.8h8.5c.43,0,.78-.33.8-.76v-.04Zm0,3.7c0-.44-.36-.8-.8-.8h-8.5c-.44,0-.8.36-.8.8,0,.44.35.79.79.79,0,0,0,0,.01,0h8.5c.43,0,.78-.33.8-.75v-.04Zm-6.44-25.89c0-.51-.41-.93-.92-.94s-.93.41-.94.92c0,.51.41.93.92.94,0,0,.01,0,.02,0,.49,0,.89-.39.92-.88v-.04Zm2.78,0c.05-.51-.32-.97-.83-1.02-.51-.05-.97.32-1.02.83,0,.06,0,.13,0,.19.05.51.51.88,1.02.83.44-.05.78-.39.83-.83Zm2.77,0c0-.51-.41-.93-.92-.94s-.93.41-.94.92c0,.51.41.93.92.94,0,0,.01,0,.02,0,.49,0,.89-.39.92-.88v-.04Zm2.77,0c0-.51-.41-.92-.92-.92s-.92.41-.92.92.41.92.92.92c.49,0,.89-.39.92-.88v-.04Zm2.78,0c.05-.51-.32-.97-.83-1.02-.51-.05-.97.32-1.02.83,0,.06,0,.13,0,.19.05.51.51.88,1.02.83.44-.05.78-.39.83-.83Zm2.77,0c0-.51-.41-.93-.92-.94s-.93.41-.94.92c0,.51.41.93.92.94,0,0,.01,0,.02,0,.48-.02.86-.4.89-.88l.03-.04Zm-13.87,7.39c-.05-.51-.51-.88-1.02-.83-.44.05-.78.39-.83.83-.05.51.32.97.83,1.02.51.05.97-.32,1.02-.83,0-.06,0-.13,0-.19Zm2.78,0c0-.51-.42-.93-.93-.93-.51,0-.93.42-.93.93,0,.51.42.93.93.93h0c.5,0,.91-.39.93-.89v-.04Zm2.77,0c-.05-.51-.51-.88-1.02-.83-.44.05-.78.39-.83.83-.05.51.32.97.83,1.02.51.05.97-.32,1.02-.83,0-.06,0-.13,0-.19Zm2.77,0c0-.51-.42-.92-.93-.91-.51,0-.92.42-.91.93,0,.5.42.91.92.91.5,0,.9-.39.92-.89v-.04Zm2.78,0c0-.51-.42-.93-.93-.93-.51,0-.93.42-.93.93,0,.51.42.93.93.93h0c.5,0,.91-.39.93-.89v-.04Zm2.77,0c-.05-.51-.51-.88-1.02-.83-.44.05-.78.39-.83.83-.05.51.32.97.83,1.02.51.05.97-.32,1.02-.83,0-.06,0-.13,0-.19Zm-4.39,10.64c0-.51-.41-.93-.92-.94s-.93.41-.94.92c0,.51.41.93.92.94,0,0,.01,0,.02,0,.49,0,.89-.39.92-.88v-.04Zm2.77,0c0-.51-.41-.92-.92-.92s-.92.41-.92.92.41.92.92.92c.49,0,.89-.39.92-.88v-.04Zm2.78,0c.05-.51-.32-.97-.83-1.02-.51-.05-.97.32-1.02.83,0,.06,0,.13,0,.19.05.51.51.88,1.02.83.44-.05.78-.39.83-.83Zm2.77,0c0-.51-.41-.93-.92-.94s-.93.41-.94.92c0,.51.41.93.92.94,0,0,.01,0,.02,0,.51.02.93-.37.96-.88l-.04-.04Zm2.78,0c.05-.51-.32-.97-.83-1.02-.51-.05-.97.32-1.02.83,0,.06,0,.13,0,.19.05.51.51.88,1.02.83.44-.05.78-.39.83-.83Zm2.77,0c.05-.51-.32-.97-.83-1.02-.51-.05-.97.32-1.02.83,0,.06,0,.13,0,.19.05.51.51.88,1.02.83.44-.05.78-.39.83-.83Zm-13.87,7.63c0-.51-.41-.93-.92-.94s-.93.41-.94.92c0,.51.41.93.92.94,0,0,.01,0,.02,0,.49,0,.9-.39.92-.88v-.04Zm2.77,0c0-.51-.41-.92-.92-.92s-.92.41-.92.92.41.92.92.92c.49,0,.9-.39.92-.88v-.04Zm2.78,0c.05-.51-.32-.97-.83-1.02-.51-.05-.97.32-1.02.83,0,.06,0,.13,0,.19.05.51.51.88,1.02.83.44-.05.78-.39.83-.83Zm2.77,0c0-.51-.41-.93-.92-.94s-.93.41-.94.92c0,.51.41.93.92.94,0,0,.01,0,.02,0,.51.02.94-.37.96-.88,0,0,0,0,0,0l-.04-.04Zm2.78,0c.05-.51-.32-.97-.83-1.02-.51-.05-.97.32-1.02.83,0,.06,0,.13,0,.19.05.51.51.88,1.02.83.44-.05.78-.39.83-.83Zm2.77,0c0-.51-.41-.93-.92-.94-.51,0-.93.41-.94.92,0,.51.41.93.92.94,0,0,0,0,0,0,.5,0,.91-.38.93-.88v-.04Z"/>
    <path class="cls-13" d="m297.03,68.96h-3.2c-.44,0-.8-.36-.8-.8s.36-.8.8-.8h3.23c.44,0,.8.36.8.8s-.36.8-.8.8h-.03Zm.8,2.9c0-.44-.36-.8-.8-.8h-3.2c-.44,0-.8.36-.8.8s.36.8.8.8h3.23c.43-.02.77-.37.77-.8Zm0,3.7c0-.44-.36-.8-.8-.8h-3.2c-.44,0-.8.36-.8.8s.36.8.8.8h3.23c.44-.02.79-.39.77-.83,0,0,0,0,0-.01v.04Zm0,3.7c0-.44-.36-.8-.8-.8h-3.2c-.44,0-.8.36-.8.8s.36.8.8.8h3.23c.43-.02.77-.37.77-.8h0Zm0,3.7c0-.44-.34-.79-.78-.8,0,0-.01,0-.02,0h-3.2c-.44-.05-.83.27-.88.71-.05.44.27.83.71.88.06,0,.12,0,.18,0h3.23c.43-.01.77-.36.77-.79h0Zm0,3.69c0-.44-.35-.79-.79-.79,0,0,0,0-.01,0h-3.2c-.44-.05-.83.27-.88.71-.05.44.27.83.71.88.06,0,.12,0,.18,0h3.23c.43-.01.78-.37.77-.8h0Zm0,3.7c0-.44-.36-.8-.8-.8h-3.2c-.44,0-.8.36-.8.8s.36.8.8.8h3.23c.43-.02.77-.37.77-.8h0Zm0,3.7c0-.44-.36-.8-.8-.8h-3.2c-.44,0-.8.36-.8.8s.36.8.8.8h3.23c.43-.02.77-.37.77-.8h0Zm12.11-25.89c0-.44-.36-.8-.8-.8h-8.49c-.44,0-.8.36-.8.8s.36.8.8.8h8.49c.44,0,.8-.36.8-.8h0Zm0,3.7c0-.44-.36-.8-.8-.8h-8.49c-.44,0-.8.36-.8.8s.36.8.8.8h8.49c.44,0,.8-.36.8-.8h0Zm0,3.7c0-.44-.36-.8-.8-.8h-8.49c-.44,0-.8.36-.8.8s.36.8.8.8h8.49c.44,0,.8-.36.8-.8,0-.01,0-.03,0-.04v.04Zm0,3.7c0-.44-.36-.8-.8-.8h-8.49c-.44,0-.8.36-.8.8s.36.8.8.8h8.49c.44,0,.8-.36.8-.8h0Zm0,3.7c0-.44-.36-.8-.8-.8h-8.49c-.44-.05-.83.27-.88.71-.05.44.27.83.71.88.06,0,.12,0,.18,0h8.49c.44,0,.79-.34.8-.78,0,0,0,0,0-.01h0Zm10.17,3.69c0-.44-.35-.79-.79-.79,0,0,0,0-.01,0h-8.48c-.44-.05-.83.27-.88.71-.05.44.27.83.71.88.06,0,.12,0,.18,0h8.49c.44,0,.79-.36.79-.8h0Zm0,3.7c0-.44-.36-.8-.8-.8h-8.48c-.44,0-.8.36-.8.8s.36.8.8.8h8.49c.44,0,.79-.36.79-.8h0Zm0,3.7c0-.44-.36-.8-.8-.8h-8.48c-.44,0-.8.36-.8.8s.36.8.8.8h8.49c.44,0,.79-.36.79-.8h0Zm-6.43-25.89c0-.51-.42-.93-.93-.93s-.93.42-.93.93c0,.51.42.93.93.93h0c.51,0,.93-.42.93-.93h0Zm2.77,0c-.05-.51-.51-.88-1.02-.83-.44.05-.78.39-.83.83-.05.51.32.97.83,1.02.51.05.97-.32,1.02-.83,0-.06,0-.13,0-.19Zm2.78,0c0-.51-.42-.93-.93-.93s-.93.42-.93.93c0,.51.42.93.93.93h0c.51,0,.93-.42.93-.93h0Zm2.77,0c0-.51-.42-.93-.93-.93s-.93.42-.93.93c0,.51.42.93.93.93h0c.51,0,.92-.4.93-.91,0,0,0-.01,0-.02h0Zm2.77,0c-.05-.51-.51-.88-1.02-.83-.44.05-.78.39-.83.83-.05.51.32.97.83,1.02.51.05.97-.32,1.02-.83,0-.06,0-.13,0-.19Zm2.78,0c0-.51-.42-.93-.93-.93s-.93.42-.93.93c0,.51.42.93.93.93h0c.51,0,.93-.42.93-.93h0Zm-13.87,7.36c.05-.51-.32-.97-.83-1.02-.51-.05-.97.32-1.02.83,0,.06,0,.13,0,.19.05.51.51.88,1.02.83.44-.05.78-.39.83-.83Zm2.77,0c0-.51-.41-.93-.92-.94-.51,0-.93.41-.94.92s.41.93.92.94c0,0,.01,0,.02,0,.51,0,.91-.41.92-.92Zm2.78,0c.05-.51-.32-.97-.83-1.02-.51-.05-.97.32-1.02.83,0,.06,0,.13,0,.19.05.51.51.88,1.02.83.44-.05.78-.39.83-.83Zm2.77,0c.05-.51-.32-.97-.83-1.02-.51-.05-.97.32-1.02.83,0,.06,0,.13,0,.19.05.51.51.88,1.02.83.44-.05.78-.39.83-.83Zm2.77,0c0-.51-.41-.93-.92-.94-.51,0-.93.41-.94.92s.41.93.92.94c0,0,.01,0,.02,0,.51,0,.91-.41.92-.92h0Zm2.78,0c.05-.51-.32-.97-.83-1.02-.51-.05-.97.32-1.02.83,0,.06,0,.13,0,.19.05.51.51.88,1.02.83.44-.05.78-.39.83-.83Zm-4.39,10.63c0-.51-.42-.93-.93-.93s-.93.42-.93.93c0,.51.42.93.93.93h0c.5,0,.91-.39.93-.89v-.04Zm2.77,0c0-.51-.42-.93-.93-.93s-.93.42-.93.93c0,.51.42.93.93.93h0c.5,0,.91-.39.93-.89v-.04Zm2.77,0c-.05-.51-.51-.88-1.02-.83-.44.05-.78.39-.83.83-.05.51.32.97.83,1.02.51.05.97-.32,1.02-.83,0-.06,0-.13,0-.19Zm2.78,0c0-.51-.42-.93-.93-.93s-.93.42-.93.93c0,.51.42.93.93.93h0c.5,0,.91-.39.93-.89v-.04Zm2.77,0c-.05-.51-.51-.88-1.02-.83-.44.05-.78.39-.83.83-.05.51.32.97.83,1.02.51.05.97-.32,1.02-.83,0-.06,0-.13,0-.19Zm2.77,0c-.05-.51-.51-.88-1.02-.83-.44.05-.78.39-.83.83-.05.51.32.97.83,1.02.51.05.97-.32,1.02-.83,0-.06,0-.13,0-.19Zm-13.86,7.63c0-.51-.41-.93-.92-.94-.51,0-.93.41-.94.92s.41.93.92.94c0,0,0,0,0,0,.49,0,.9-.39.93-.88v-.04Zm2.77,0c0-.51-.41-.93-.92-.94-.51,0-.93.41-.94.92s.41.93.92.94c0,0,0,0,0,0,.49,0,.9-.39.93-.88v-.04Zm2.77,0c0-.51-.41-.93-.92-.94-.51,0-.93.41-.94.92s.41.93.92.94c0,0,.01,0,.02,0,.49,0,.9-.39.92-.88v-.04Zm2.78,0c0-.51-.41-.93-.92-.94-.51,0-.93.41-.94.92s.41.93.92.94c0,0,0,0,0,0,.49,0,.9-.39.93-.88v-.04Zm2.77,0c0-.51-.41-.93-.92-.94-.51,0-.93.41-.94.92s.41.93.92.94c0,0,.01,0,.02,0,.49,0,.9-.39.92-.88v-.04Zm2.77,0c0-.51-.41-.93-.92-.94-.51,0-.93.41-.94.92s.41.93.92.94c0,0,.01,0,.02,0,.49,0,.9-.39.92-.88v-.04Z"/>
    <path class="cls-13" d="m297.03,99.27h-3.2c-.44,0-.8-.36-.8-.8s.36-.8.8-.8h3.23c.44,0,.8.36.8.8s-.36.8-.8.8h-.03Zm.8,2.9c0-.44-.36-.8-.8-.8h-3.2c-.44,0-.8.36-.8.8s.36.8.8.8h3.23c.43-.02.77-.37.77-.8Zm0,3.7c0-.44-.36-.8-.8-.8h-3.2c-.44,0-.8.36-.8.8s.36.8.8.8h3.23c.43-.02.77-.37.77-.8h0Zm0,3.7c0-.44-.36-.8-.8-.8h-3.2c-.44,0-.8.36-.8.8s.36.8.8.8h3.23c.43-.02.77-.37.77-.8h0Zm0,3.7c0-.44-.34-.79-.78-.8,0,0-.01,0-.02,0h-3.2c-.44-.05-.83.27-.88.71-.05.44.27.83.71.88.06,0,.12,0,.18,0h3.23c.43-.01.77-.36.77-.79h0Zm0,3.69c0-.44-.35-.79-.79-.79,0,0,0,0-.01,0h-3.2c-.44-.05-.83.27-.88.71-.05.44.27.83.71.88.06,0,.12,0,.18,0h3.23c.43-.01.78-.37.77-.8h0Zm0,3.7c0-.44-.36-.8-.8-.8h-3.2c-.44,0-.8.36-.8.8s.36.8.8.8h3.23c.43-.02.77-.37.77-.8h0Zm0,3.7c0-.44-.36-.8-.8-.8h-3.2c-.44,0-.8.36-.8.8s.36.8.8.8h3.23c.43-.02.77-.37.77-.8Zm12.11-25.84c0-.44-.36-.8-.8-.8h-8.49c-.44,0-.8.36-.8.8s.36.8.8.8h8.49c.44,0,.8-.36.8-.8Zm0,3.7c0-.44-.36-.8-.8-.8h-8.49c-.44,0-.8.36-.8.8s.36.8.8.8h8.49c.44,0,.8-.36.8-.8,0-.02,0-.03,0-.05v.05Zm0,3.7c0-.44-.36-.8-.8-.8h-8.49c-.44,0-.8.36-.8.8s.36.8.8.8h8.49c.44,0,.8-.36.8-.8,0-.02,0-.03,0-.05v.05Zm0,3.7c0-.44-.36-.8-.8-.8h-8.49c-.44,0-.8.36-.8.8s.36.8.8.8h8.49c.44,0,.8-.36.8-.8,0-.02,0-.03,0-.05v.05Zm0,3.7c0-.44-.36-.8-.8-.8h-8.49c-.44-.05-.83.27-.88.71-.05.44.27.83.71.88.06,0,.12,0,.18,0h8.49c.44,0,.8-.34.8-.78,0-.02,0-.04,0-.06v.05Zm10.17,3.69c0-.44-.35-.79-.79-.79,0,0,0,0-.01,0h-8.48c-.44-.05-.83.27-.88.71-.05.44.27.83.71.88.06,0,.12,0,.18,0h8.49c.44,0,.8-.37.79-.81,0-.01,0-.03,0-.04v.05Zm0,3.7c0-.44-.36-.8-.8-.8h-8.48c-.44,0-.8.36-.8.8s.36.8.8.8h8.49c.44,0,.8-.37.79-.81,0-.01,0-.03,0-.04v.05Zm0,3.7c0-.44-.36-.8-.8-.8h-8.48c-.44,0-.8.36-.8.8s.36.8.8.8h8.49c.44,0,.8-.37.79-.81,0-.01,0-.03,0-.04v.05Zm-6.43-25.89c0-.51-.42-.93-.93-.93s-.93.42-.93.93c0,.51.42.93.93.93h0c.51,0,.93-.42.93-.93Zm2.77,0c-.05-.51-.51-.88-1.02-.83-.44.05-.78.39-.83.83-.05.51.32.97.83,1.02.51.05.97-.32,1.02-.83,0-.06,0-.13,0-.19Zm2.78,0c0-.51-.42-.93-.93-.93s-.93.42-.93.93c0,.51.42.93.93.93h0c.51,0,.93-.42.93-.93Zm2.77,0c0-.51-.42-.93-.93-.93s-.93.42-.93.93c0,.51.42.93.93.93h0c.51,0,.92-.4.93-.91,0,0,0-.01,0-.02h0Zm2.77,0c-.05-.51-.51-.88-1.02-.83-.44.05-.78.39-.83.83-.05.51.32.97.83,1.02.51.05.97-.32,1.02-.83,0-.06,0-.13,0-.19Zm2.78,0c0-.51-.42-.93-.93-.93s-.93.42-.93.93c0,.51.42.93.93.93h0c.51,0,.93-.42.93-.93h0s0,0,0,0Zm-13.87,7.4c.05-.51-.32-.97-.83-1.02-.51-.05-.97.32-1.02.83,0,.06,0,.13,0,.19.05.51.51.88,1.02.83.44-.05.78-.39.83-.83Zm2.77,0c0-.51-.41-.93-.92-.94-.51,0-.93.41-.94.92s.41.93.92.94c0,0,.01,0,.02,0,.51,0,.93-.43.92-.94,0-.01,0-.02,0-.03v.05Zm2.78,0c.05-.51-.32-.97-.83-1.02-.51-.05-.97.32-1.02.83,0,.06,0,.13,0,.19.05.51.51.88,1.02.83.44-.05.78-.39.83-.83Zm2.77,0c.05-.51-.32-.97-.83-1.02-.51-.05-.97.32-1.02.83,0,.06,0,.13,0,.19.05.51.51.88,1.02.83.44-.05.78-.39.83-.83Zm2.77,0c0-.51-.41-.93-.92-.94-.51,0-.93.41-.94.92s.41.93.92.94c0,0,.01,0,.02,0,.51,0,.93-.43.92-.94,0-.01,0-.02,0-.03v.05Zm2.78,0c.05-.51-.32-.97-.83-1.02-.51-.05-.97.32-1.02.83,0,.06,0,.13,0,.19.05.51.51.88,1.02.83.44-.05.78-.39.83-.83Zm-4.39,10.6c0-.51-.42-.93-.93-.93s-.93.42-.93.93c0,.51.42.93.93.93h0c.51,0,.93-.42.93-.93Zm2.77,0c0-.51-.42-.93-.93-.93s-.93.42-.93.93c0,.51.42.93.93.93h0c.51,0,.93-.42.93-.93h0s0,0,0,0Zm2.77,0c-.05-.51-.51-.88-1.02-.83-.44.05-.78.39-.83.83-.05.51.32.97.83,1.02.51.05.97-.32,1.02-.83,0-.06,0-.13,0-.19Zm2.78,0c0-.51-.42-.93-.93-.93s-.93.42-.93.93c0,.51.42.93.93.93h0c.51,0,.93-.42.93-.93h0s0,0,0,0Zm2.77,0c-.05-.51-.51-.88-1.02-.83-.44.05-.78.39-.83.83-.05.51.32.97.83,1.02.51.05.97-.32,1.02-.83,0-.06,0-.13,0-.19Zm2.77,0c-.05-.51-.51-.88-1.02-.83-.44.05-.78.39-.83.83-.05.51.32.97.83,1.02.51.05.97-.32,1.02-.83,0-.06,0-.13,0-.19Zm-13.86,7.63c0-.51-.41-.93-.92-.94-.51,0-.93.41-.94.92,0,.51.41.93.92.94,0,0,0,0,0,0,.51,0,.93-.42.93-.93,0,0,0,0,0-.01v.02Zm2.77,0c0-.51-.41-.93-.92-.94-.51,0-.93.41-.94.92,0,.51.41.93.92.94,0,0,0,0,0,0,.51,0,.93-.42.93-.93,0,0,0,0,0-.01v.02Zm2.77,0c0-.51-.41-.93-.92-.94s-.93.41-.94.92c0,.51.41.93.92.94,0,0,.01,0,.02,0,.51,0,.92-.41.92-.92,0,0,0-.01,0-.02v.02Zm2.78,0c0-.51-.41-.93-.92-.94-.51,0-.93.41-.94.92,0,.51.41.93.92.94,0,0,0,0,0,0,.51,0,.93-.42.93-.93,0,0,0,0,0-.01v.02Zm2.77,0c0-.51-.41-.93-.92-.94s-.93.41-.94.92c0,.51.41.93.92.94,0,0,.01,0,.02,0,.51,0,.92-.41.92-.92,0,0,0-.01,0-.02v.02Zm2.77,0c0-.51-.41-.93-.92-.94s-.93.41-.94.92c0,.51.41.93.92.94,0,0,.01,0,.02,0,.51,0,.92-.41.92-.92,0,0,0-.01,0-.02v.02Z"/>
    <path class="cls-13" d="m138.41,1.73h-3.24c-.44,0-.8-.36-.8-.8s.36-.8.8-.8h3.24c.44,0,.8.36.8.8s-.36.8-.8.8Zm.8,2.9c0-.44-.36-.8-.8-.8h-3.24c-.44,0-.8.36-.8.8s.36.8.8.8h3.24c.44,0,.8-.36.8-.8h0Zm0,3.7c0-.44-.36-.8-.8-.8h-3.24c-.44,0-.8.36-.8.8s.36.8.8.8h3.24c.44,0,.8-.36.8-.8h0Zm0,3.7c0-.44-.36-.8-.8-.8h-3.24c-.44,0-.79.35-.79.79,0,0,0,0,0,.01,0,.44.35.79.79.79h3.24c.44,0,.79-.34.8-.78,0,0,0,0,0-.01Zm0,3.69c0-.44-.35-.79-.79-.79,0,0,0,0-.01,0h-3.24c-.44.05-.76.45-.71.88.04.37.33.66.71.71h3.24c.44,0,.8-.36.8-.8h0Zm0,3.7c0-.44-.35-.79-.79-.79,0,0,0,0-.01,0h-3.24c-.44,0-.79.35-.79.79,0,.44.34.79.78.8,0,0,0,0,.01,0h3.24c.44,0,.8-.36.8-.8h0Zm0,3.7c0-.44-.36-.8-.8-.8h-3.24c-.44,0-.8.36-.8.8s.36.8.8.8h3.24c.44,0,.8-.36.8-.8h0Zm0,3.7c0-.44-.36-.8-.8-.8h-3.24c-.44,0-.8.36-.8.8s.36.8.8.8h3.24c.44,0,.8-.36.8-.8h0ZM151.32.93c0-.44-.36-.8-.8-.8h-8.5c-.44,0-.8.36-.8.8s.36.8.8.8h8.5c.44,0,.8-.36.8-.8h0Zm0,3.7c0-.44-.36-.8-.8-.8h-8.5c-.44,0-.8.36-.8.8s.36.8.8.8h8.5c.44,0,.8-.36.8-.8h0Zm0,3.7c0-.44-.36-.8-.8-.8h-8.5c-.44,0-.8.36-.8.8s.36.8.8.8h8.5c.44,0,.8-.36.8-.8h0Zm0,3.7c0-.44-.36-.8-.8-.8h-8.5c-.44,0-.8.36-.8.8h0c0,.44.35.79.79.79,0,0,0,0,.01,0h8.5c.44,0,.79-.34.8-.78,0,0,0,0,0-.01h0Zm0,3.69c0-.44-.35-.79-.79-.79,0,0,0,0-.01,0h-8.5c-.44-.05-.83.27-.88.71-.05.44.27.83.71.88.06,0,.12,0,.18,0h8.5c.44,0,.8-.36.8-.8h0Zm10.17,3.7c0-.44-.35-.79-.79-.79,0,0,0,0-.01,0h-8.5c-.44,0-.79.34-.8.78,0,0,0,0,0,.01,0,.44.36.8.8.8h8.5c.44,0,.8-.36.8-.8h0Zm0,3.7c0-.44-.36-.8-.8-.8h-8.5c-.44,0-.8.36-.8.8s.36.8.8.8h8.5c.44,0,.8-.36.8-.8h0Zm0,3.7c0-.44-.36-.8-.8-.8h-8.5c-.44,0-.8.36-.8.8s.36.8.8.8h8.5c.44,0,.8-.36.8-.8h0Zm-6.44-25.89c-.05-.51-.51-.88-1.02-.83-.44.05-.78.39-.83.83-.05.51.32.97.83,1.02.51.05.97-.32,1.02-.83,0-.06,0-.13,0-.19Zm2.78,0c0-.51-.42-.93-.93-.93s-.93.42-.93.93.42.93.93.93h0c.51,0,.93-.42.93-.93h0Zm2.77,0c-.05-.51-.51-.88-1.02-.83-.44.05-.78.39-.83.83-.05.51.32.97.83,1.02.51.05.97-.32,1.02-.83,0-.06,0-.13,0-.19Zm2.78,0c0-.51-.42-.93-.93-.93s-.93.42-.93.93.42.93.93.93h0c.51,0,.93-.42.93-.93h0Zm2.77,0c0-.51-.42-.93-.93-.93s-.93.42-.93.93.42.93.93.93h0c.51,0,.92-.4.93-.91,0,0,0-.01,0-.02h0Zm2.77,0c-.05-.51-.51-.88-1.02-.83-.44.05-.78.39-.83.83-.05.51.32.97.83,1.02.51.05.97-.32,1.02-.83,0-.06,0-.13,0-.19Zm-13.87,7.4c0-.51-.41-.93-.92-.94s-.93.41-.94.92.41.93.92.94c0,0,.01,0,.02,0,.51,0,.91-.41.92-.92h0Zm2.78,0c.05-.51-.32-.97-.83-1.02-.51-.05-.97.32-1.02.83,0,.06,0,.13,0,.19.05.51.51.88,1.02.83.44-.05.78-.39.83-.83Zm2.77,0c0-.51-.41-.93-.92-.94s-.93.41-.94.92.41.93.92.94c0,0,.01,0,.02,0,.51,0,.91-.41.92-.92h0Zm2.78,0c.05-.51-.32-.97-.83-1.02-.51-.05-.97.32-1.02.83,0,.06,0,.13,0,.19.05.51.51.88,1.02.83.44-.05.78-.39.83-.83Zm2.77,0c.05-.51-.32-.97-.83-1.02-.51-.05-.97.32-1.02.83,0,.06,0,.13,0,.19.05.51.51.88,1.02.83.44-.05.78-.39.83-.83Zm2.77,0c0-.51-.41-.93-.92-.94s-.93.41-.94.92.41.93.92.94c0,0,.01,0,.02,0,.51,0,.91-.41.92-.92h0Zm-4.39,10.63c-.05-.51-.51-.88-1.02-.83-.44.05-.78.39-.83.83-.05.51.32.97.83,1.02.51.05.97-.32,1.02-.83,0-.06,0-.13,0-.19Zm2.78,0c0-.51-.42-.93-.93-.93s-.93.42-.93.93.42.93.93.93h0c.51,0,.93-.42.93-.93h0Zm2.77,0c0-.51-.42-.93-.93-.93s-.93.42-.93.93.42.93.93.93h0c.51,0,.93-.42.93-.93h0Zm2.77,0c-.05-.51-.51-.88-1.02-.83-.44.05-.78.39-.83.83-.05.51.32.97.83,1.02.51.05.97-.32,1.02-.83,0-.06,0-.13,0-.19Zm2.78,0c0-.51-.42-.93-.93-.93s-.93.42-.93.93.42.93.93.93h0c.51,0,.93-.42.93-.93h0Zm2.77,0c-.05-.51-.51-.88-1.02-.83-.44.05-.78.39-.83.83-.05.51.32.97.83,1.02.51.05.97-.32,1.02-.83,0-.06,0-.13,0-.19Zm-13.87,7.63c0-.51-.41-.93-.92-.94s-.93.41-.94.92.41.93.92.94c0,0,.01,0,.02,0,.51,0,.91-.41.92-.92h0Zm2.78,0c.05-.51-.32-.97-.83-1.02-.51-.05-.97.32-1.02.83,0,.06,0,.13,0,.19.05.51.51.88,1.02.83.44-.05.78-.39.83-.83Zm2.77,0c.05-.51-.32-.97-.83-1.02-.51-.05-.97.32-1.02.83,0,.06,0,.13,0,.19.05.51.51.88,1.02.83.44-.05.78-.39.83-.83Zm2.77,0c0-.51-.41-.93-.92-.94s-.93.41-.94.92.41.93.92.94c0,0,.01,0,.02,0,.5-.02.89-.42.9-.92h.02Zm2.78,0c.05-.51-.32-.97-.83-1.02-.51-.05-.97.32-1.02.83,0,.06,0,.13,0,.19.05.51.51.88,1.02.83.44-.05.78-.39.83-.83Zm2.77,0c0-.51-.41-.93-.92-.94s-.93.41-.94.92.41.93.92.94c0,0,.01,0,.02,0,.51,0,.91-.41.92-.92h0Z"/>
    <path class="cls-13" d="m138.41,31.32h-3.24c-.44,0-.79-.35-.79-.79,0-.44.34-.79.78-.8,0,0,0,0,.01,0h3.24c.44,0,.8.36.8.8h0c0,.44-.35.79-.79.79,0,0,0,0-.01,0Zm.8,2.9c0-.44-.35-.79-.79-.79,0,0,0,0-.01,0h-3.24c-.44.05-.76.45-.71.88.04.37.33.66.71.71h3.24c.44,0,.8-.36.8-.8h0Zm0,3.7c0-.44-.35-.79-.79-.79,0,0,0,0-.01,0h-3.24c-.44,0-.79.35-.79.79,0,.44.34.79.78.8,0,0,0,0,.01,0h3.24c.44,0,.8-.36.8-.8h0Zm0,3.7c0-.44-.36-.8-.8-.8h-3.24c-.44,0-.8.36-.8.8s.36.8.8.8h3.24c.44,0,.8-.36.8-.8h0Zm0,3.7c0-.44-.36-.8-.8-.8h-3.24c-.44,0-.8.36-.8.8s.36.8.8.8h3.24c.44,0,.8-.36.8-.8h0Zm0,3.7c0-.44-.36-.8-.8-.8h-3.24c-.44,0-.8.36-.8.8s.36.8.8.8h3.24c.44,0,.8-.36.8-.8h0Zm0,3.7c0-.44-.36-.8-.8-.8h-3.24c-.44,0-.8.36-.8.8s.36.8.8.8h3.24c.44,0,.8-.36.8-.8h0Zm0,3.7c0-.44-.36-.8-.8-.8h-3.24c-.44.05-.76.45-.71.88.04.37.33.66.71.71h3.24c.44,0,.79-.34.8-.78,0,0,0,0,0-.01h0Zm12.11-25.9c0-.44-.36-.8-.8-.8h-8.5c-.44,0-.8.36-.8.8h0c0,.44.35.79.79.79,0,0,0,0,.01,0h8.5c.44,0,.79-.34.8-.78,0,0,0,0,0-.01Zm0,3.69c0-.44-.35-.79-.79-.79,0,0,0,0-.01,0h-8.5c-.44-.05-.83.27-.88.71-.05.44.27.83.71.88.06,0,.12,0,.18,0h8.5c.44,0,.79-.35.8-.79h0Zm0,3.7c0-.44-.35-.79-.79-.79,0,0,0,0-.01,0h-8.5c-.44,0-.79.34-.8.78,0,0,0,0,0,.01,0,.44.36.8.8.8h8.5c.44,0,.79-.35.8-.79h0Zm0,3.7c0-.44-.36-.8-.8-.8h-8.5c-.44,0-.8.36-.8.8s.36.8.8.8h8.5c.44,0,.79-.35.8-.79h0Zm0,3.7c0-.44-.36-.8-.8-.8h-8.5c-.44,0-.8.36-.8.8s.36.8.8.8h8.5c.44,0,.79-.35.8-.79h0Zm10.17,3.7c0-.44-.36-.8-.8-.8h-8.5c-.44,0-.8.36-.8.8s.36.8.8.8h8.5c.44,0,.79-.35.8-.79h0Zm0,3.7c0-.44-.36-.8-.8-.8h-8.5c-.44,0-.8.36-.8.8s.36.8.8.8h8.5c.44,0,.79-.35.8-.79h0Zm0,3.7c0-.44-.36-.8-.8-.8h-8.5c-.44-.05-.83.27-.88.71-.05.44.27.83.71.88.06,0,.12,0,.18,0h8.5c.44,0,.79-.34.8-.78h0Zm-6.44-25.89c0-.51-.41-.93-.92-.94s-.93.41-.94.92.41.93.92.94c0,0,.01,0,.02,0,.51,0,.91-.41.92-.92Zm2.78,0c.05-.51-.32-.97-.83-1.02-.51-.05-.97.32-1.02.83,0,.06,0,.13,0,.19.05.51.51.88,1.02.83.44-.05.78-.39.83-.83Zm2.77,0c0-.51-.41-.93-.92-.94s-.93.41-.94.92.41.93.92.94c0,0,.01,0,.02,0,.51,0,.91-.41.92-.92Zm2.78,0c.05-.51-.32-.97-.83-1.02-.51-.05-.97.32-1.02.83,0,.06,0,.13,0,.19.05.51.51.88,1.02.83.44-.05.78-.39.83-.83Zm2.77,0c.05-.51-.32-.97-.83-1.02-.51-.05-.97.32-1.02.83,0,.06,0,.13,0,.19.05.51.51.88,1.02.83.44-.05.78-.39.83-.83Zm2.77,0c0-.51-.41-.93-.92-.94s-.93.41-.94.92.41.93.92.94c0,0,.01,0,.02,0,.51,0,.91-.41.92-.92h0Zm-13.87,7.39c-.05-.51-.51-.88-1.02-.83-.44.05-.78.39-.83.83-.05.51.32.97.83,1.02.51.05.97-.32,1.02-.83,0-.06,0-.13,0-.19Zm2.78,0c0-.51-.42-.93-.93-.93s-.93.42-.93.93.42.93.93.93h0c.51,0,.92-.41.93-.92h0Zm2.77,0c-.05-.51-.51-.88-1.02-.83-.44.05-.78.39-.83.83-.05.51.32.97.83,1.02.51.05.97-.32,1.02-.83,0-.06,0-.13,0-.19Zm2.78,0c0-.51-.42-.93-.93-.93s-.93.42-.93.93.42.93.93.93h0c.51,0,.92-.41.93-.92h0Zm2.77,0c0-.51-.42-.93-.93-.93s-.93.42-.93.93.42.93.93.93h0c.51,0,.92-.4.93-.91,0,0,0,0,0-.01h0Zm2.77,0c-.05-.51-.51-.88-1.02-.83-.44.05-.78.39-.83.83-.05.51.32.97.83,1.02.51.05.97-.32,1.02-.83,0-.06,0-.13,0-.19Zm-4.39,10.61c0-.51-.41-.93-.92-.94s-.93.41-.94.92.41.93.92.94c0,0,.01,0,.02,0,.51,0,.91-.41.92-.92Zm2.78,0c.05-.51-.32-.97-.83-1.02-.51-.05-.97.32-1.02.83,0,.06,0,.13,0,.19.05.51.51.88,1.02.83.44-.05.78-.39.83-.83Zm2.77,0c.05-.51-.32-.97-.83-1.02-.51-.05-.97.32-1.02.83,0,.06,0,.13,0,.19.05.51.51.88,1.02.83.44-.05.78-.39.83-.83Zm2.77,0c0-.51-.41-.93-.92-.94s-.93.41-.94.92.41.93.92.94c0,0,.01,0,.02,0,.5-.02.89-.42.9-.92h.02Zm2.78,0c.05-.51-.32-.97-.83-1.02-.51-.05-.97.32-1.02.83,0,.06,0,.13,0,.19.05.51.51.88,1.02.83.44-.05.78-.39.83-.83Zm2.77,0c0-.51-.41-.93-.92-.94s-.93.41-.94.92.41.93.92.94c0,0,.01,0,.02,0,.51,0,.91-.41.92-.92Zm-13.87,7.62c-.05-.51-.51-.88-1.02-.83-.44.05-.78.39-.83.83-.05.51.32.97.83,1.02.51.05.97-.32,1.02-.83,0-.06,0-.13,0-.19Zm2.78,0c0-.51-.42-.93-.93-.93s-.93.42-.93.93.42.93.93.93h0c.5,0,.91-.39.93-.89v-.04Zm2.77,0c0-.51-.42-.93-.93-.93s-.93.42-.93.93.42.93.93.93h0c.5,0,.91-.39.93-.89v-.04Zm2.77,0c-.05-.51-.51-.88-1.02-.83-.44.05-.78.39-.83.83-.05.51.32.97.83,1.02.51.05.97-.32,1.02-.83,0-.06,0-.13,0-.19Zm2.78,0c0-.51-.42-.93-.93-.93s-.93.42-.93.93.42.93.93.93h0c.5,0,.91-.39.93-.89v-.04Zm2.77,0c-.05-.51-.51-.88-1.02-.83-.44.05-.78.39-.83.83-.05.51.32.97.83,1.02.51.05.97-.32,1.02-.83,0-.06,0-.13,0-.19Z"/>
    <path class="cls-13" d="m138.41,61.63h-3.24c-.44,0-.79-.35-.79-.79,0-.44.34-.79.78-.8,0,0,0,0,.01,0h3.24c.44,0,.8.36.8.8h0c0,.44-.35.79-.79.79,0,0,0,0-.01,0Zm.8,2.9c0-.44-.35-.79-.79-.79,0,0,0,0-.01,0h-3.24c-.44.05-.76.45-.71.88.04.37.33.66.71.71h3.24c.44,0,.8-.36.8-.8,0,0,0,0,0-.01h0Zm0,3.7c0-.44-.36-.8-.8-.8h-3.24c-.44,0-.8.36-.8.8s.36.8.8.8h3.24c.44,0,.8-.36.8-.8h0Zm0,3.7c0-.44-.36-.8-.8-.8h-3.24c-.44,0-.8.36-.8.8s.36.8.8.8h3.24c.44,0,.8-.36.8-.8h0Zm0,3.7c0-.44-.36-.8-.8-.8h-3.24c-.44,0-.8.36-.8.8s.36.8.8.8h3.24c.44,0,.8-.36.8-.8h0Zm0,3.7c0-.44-.36-.8-.8-.8h-3.24c-.44,0-.8.36-.8.8s.36.8.8.8h3.24c.44,0,.8-.36.8-.8h0Zm0,3.7c0-.44-.36-.8-.8-.8h-3.24c-.44,0-.8.36-.8.8s.36.8.8.8h3.24c.44,0,.8-.36.8-.8h0Zm0,3.7c0-.44-.36-.8-.8-.8h-3.24c-.44.05-.76.45-.71.88.04.37.33.66.71.71h3.24c.44,0,.79-.34.8-.78,0,0,0,0,0-.01h0Zm12.11-25.89c0-.44-.36-.8-.8-.8h-8.5c-.44,0-.8.36-.8.8h0c0,.44.35.79.79.79,0,0,0,0,.01,0h8.5c.44,0,.79-.34.8-.78,0,0,0,0,0-.01h0Zm0,3.69c0-.44-.35-.79-.79-.79,0,0,0,0-.01,0h-8.5c-.44-.05-.83.27-.88.71-.05.44.27.83.71.88.06,0,.12,0,.18,0h8.5c.44,0,.8-.36.8-.8,0,0,0,0,0-.01h0Zm0,3.7c0-.44-.36-.8-.8-.8h-8.5c-.44,0-.8.36-.8.8s.36.8.8.8h8.5c.44,0,.8-.36.8-.8h0Zm0,3.7c0-.44-.36-.8-.8-.8h-8.5c-.44,0-.8.36-.8.8s.36.8.8.8h8.5c.44,0,.8-.36.8-.8h0Zm0,3.7c0-.44-.36-.8-.8-.8h-8.5c-.44,0-.8.36-.8.8s.36.8.8.8h8.5c.44,0,.8-.36.8-.8h0Zm10.17,3.7c0-.44-.36-.8-.8-.8h-8.5c-.44,0-.8.36-.8.8s.36.8.8.8h8.5c.44,0,.8-.36.8-.8h0Zm0,3.7c0-.44-.36-.8-.8-.8h-8.5c-.44,0-.8.36-.8.8s.36.8.8.8h8.5c.44,0,.8-.36.8-.8h0Zm0,3.7c0-.44-.36-.8-.8-.8h-8.5c-.44-.05-.83.27-.88.71-.05.44.27.83.71.88.06,0,.12,0,.18,0h8.5c.44,0,.79-.34.8-.78,0,0,0,0,0-.01h0Zm-6.44-25.89c0-.51-.41-.93-.92-.94s-.93.41-.94.92.41.93.92.94c0,0,.01,0,.02,0,.51,0,.91-.41.92-.92h0Zm2.78,0c.05-.51-.32-.97-.83-1.02-.51-.05-.97.32-1.02.83,0,.06,0,.13,0,.19.05.51.51.88,1.02.83.44-.05.78-.39.83-.83Zm2.77,0c0-.51-.41-.93-.92-.94s-.93.41-.94.92.41.93.92.94c0,0,.01,0,.02,0,.51,0,.91-.41.92-.92h0Zm2.78,0c.05-.51-.32-.97-.83-1.02-.51-.05-.97.32-1.02.83,0,.06,0,.13,0,.19.05.51.51.88,1.02.83.44-.05.78-.39.83-.83Zm2.77,0c.05-.51-.32-.97-.83-1.02-.51-.05-.97.32-1.02.83,0,.06,0,.13,0,.19.05.51.51.88,1.02.83.44-.05.78-.39.83-.83Zm2.77,0c0-.51-.41-.93-.92-.94s-.93.41-.94.92.41.93.92.94c0,0,.01,0,.02,0,.51,0,.91-.41.92-.92h0Zm-13.87,7.39c-.05-.51-.51-.88-1.02-.83-.44.05-.78.39-.83.83-.05.51.32.97.83,1.02.51.05.97-.32,1.02-.83,0-.06,0-.13,0-.19Zm2.78,0c0-.51-.42-.93-.93-.93s-.93.42-.93.93.42.93.93.93h0c.51,0,.93-.42.93-.93h0Zm2.77,0c-.05-.51-.51-.88-1.02-.83-.44.05-.78.39-.83.83-.05.51.32.97.83,1.02.51.05.97-.32,1.02-.83,0-.06,0-.13,0-.19Zm2.78,0c0-.51-.42-.93-.93-.93s-.93.42-.93.93.42.93.93.93h0c.51,0,.93-.42.93-.93h0Zm2.77,0c0-.51-.42-.93-.93-.93s-.93.42-.93.93.42.93.93.93h0c.51,0,.92-.4.93-.91,0,0,0-.01,0-.02h0Zm2.77,0c-.05-.51-.51-.88-1.02-.83-.44.05-.78.39-.83.83-.05.51.32.97.83,1.02.51.05.97-.32,1.02-.83,0-.06,0-.13,0-.19Zm-4.39,10.64c0-.51-.41-.93-.92-.94s-.93.41-.94.92.41.93.92.94c0,0,.01,0,.02,0,.51,0,.91-.41.92-.92h0Zm2.78,0c.05-.51-.32-.97-.83-1.02-.51-.05-.97.32-1.02.83,0,.06,0,.13,0,.19.05.51.51.88,1.02.83.44-.05.78-.39.83-.83Zm2.77,0c.05-.51-.32-.97-.83-1.02-.51-.05-.97.32-1.02.83,0,.06,0,.13,0,.19.05.51.51.88,1.02.83.44-.05.78-.39.83-.83Zm2.77,0c0-.51-.41-.93-.92-.94s-.93.41-.94.92.41.93.92.94c0,0,.01,0,.02,0,.5-.02.89-.42.9-.92h.02Zm2.78,0c.05-.51-.32-.97-.83-1.02-.51-.05-.97.32-1.02.83,0,.06,0,.13,0,.19.05.51.51.88,1.02.83.44-.05.78-.39.83-.83Zm2.77,0c0-.51-.41-.93-.92-.94s-.93.41-.94.92.41.93.92.94c0,0,.01,0,.02,0,.51,0,.91-.41.92-.92h0Zm-13.87,7.65c-.05-.51-.51-.88-1.02-.83-.44.05-.78.39-.83.83-.05.51.32.97.83,1.02.51.05.97-.32,1.02-.83,0-.06,0-.13,0-.19Zm2.78,0c0-.51-.42-.93-.93-.93s-.93.42-.93.93.42.93.93.93h0c.51,0,.93-.42.93-.93Zm2.77,0c0-.51-.42-.93-.93-.93s-.93.42-.93.93.42.93.93.93h0c.51,0,.93-.42.93-.93Zm2.77,0c-.05-.51-.51-.88-1.02-.83-.44.05-.78.39-.83.83-.05.51.32.97.83,1.02.51.05.97-.32,1.02-.83,0-.06,0-.13,0-.19Zm2.78,0c0-.51-.42-.93-.93-.93s-.93.42-.93.93.42.93.93.93h0c.51,0,.93-.42.93-.93Zm2.77,0c-.05-.51-.51-.88-1.02-.83-.44.05-.78.39-.83.83-.05.51.32.97.83,1.02.51.05.97-.32,1.02-.83,0-.06,0-.13,0-.19Z"/>
    <path class="cls-13" d="m188.1,1.73h-3.27c-.44,0-.8-.36-.8-.8s.36-.8.8-.8h3.24c.44,0,.8.36.8.8s-.36.8-.8.8h.03Zm.79,2.9c0-.44-.34-.79-.78-.8,0,0,0,0-.01,0h-3.27c-.44,0-.8.36-.8.8s.36.8.8.8h3.24c.44.02.8-.32.82-.76,0-.01,0-.03,0-.04Zm0,3.7c0-.44-.34-.79-.78-.8,0,0,0,0-.01,0h-3.27c-.44,0-.8.36-.8.8s.36.8.8.8h3.24c.44.02.8-.32.82-.76,0-.01,0-.03,0-.04Zm0,3.7c0-.44-.34-.79-.78-.8,0,0,0,0-.01,0h-3.27c-.44,0-.8.36-.8.8h0c0,.44.35.79.79.79,0,0,0,0,.01,0h3.24c.44.02.8-.32.82-.76,0-.01,0-.02,0-.03Zm0,3.69c0-.44-.35-.79-.79-.79h-3.27c-.44-.05-.83.27-.88.71-.05.44.27.83.71.88.06,0,.12,0,.18,0h3.24c.44.02.8-.32.82-.76,0-.01,0-.03,0-.04Zm0,3.7c0-.44-.35-.79-.79-.79h-3.27c-.44,0-.79.34-.8.78,0,0,0,0,0,.01,0,.44.36.8.8.8h3.24c.44.02.8-.32.82-.76,0-.01,0-.03,0-.04Zm0,3.7c0-.44-.34-.79-.78-.8,0,0,0,0-.01,0h-3.27c-.44,0-.8.36-.8.8s.36.8.8.8h3.24c.44.02.8-.32.82-.76,0-.01,0-.03,0-.04h0Zm0,3.7c0-.44-.34-.79-.78-.8,0,0,0,0-.01,0h-3.27c-.44,0-.8.36-.8.8s.36.8.8.8h3.24c.44.02.8-.32.82-.76,0-.01,0-.03,0-.04h0ZM201,.93c0-.44-.36-.8-.8-.8h-8.49c-.44,0-.8.36-.8.8s.36.8.8.8h8.49c.44,0,.8-.36.8-.8h0Zm0,3.7c0-.44-.36-.8-.8-.8h-8.49c-.44,0-.8.36-.8.8s.36.8.8.8h8.49c.44,0,.8-.36.8-.8h0Zm0,3.7c0-.44-.36-.8-.8-.8h-8.49c-.44,0-.8.36-.8.8s.36.8.8.8h8.49c.44,0,.8-.36.8-.8h0Zm0,3.7c0-.44-.36-.8-.8-.8h-8.49c-.44,0-.8.36-.8.8h0c0,.44.35.79.79.79,0,0,0,0,.01,0h8.49c.44,0,.79-.34.8-.78,0,0,0,0,0-.01h0Zm0,3.69c0-.44-.35-.79-.79-.79,0,0,0,0-.01,0h-8.49c-.44-.05-.83.27-.88.71-.05.44.27.83.71.88.06,0,.12,0,.18,0h8.49c.44,0,.8-.36.8-.8h0Zm10.17,3.7c0-.44-.35-.79-.79-.79,0,0,0,0-.01,0h-8.49c-.44,0-.79.34-.8.78,0,0,0,0,0,.01,0,.44.36.8.8.8h8.49c.44,0,.8-.36.8-.8h0Zm0,3.7c0-.44-.36-.8-.8-.8h-8.49c-.44,0-.8.36-.8.8s.36.8.8.8h8.49c.44,0,.8-.36.8-.8h0Zm0,3.7c0-.44-.36-.8-.8-.8h-8.49c-.44,0-.8.36-.8.8s.36.8.8.8h8.49c.44,0,.8-.36.8-.8h0Zm-6.43-25.89c0-.51-.42-.93-.93-.93s-.93.42-.93.93.42.93.93.93h0c.51,0,.93-.42.93-.93h0Zm2.77,0c-.05-.51-.51-.88-1.02-.83-.44.05-.78.39-.83.83-.05.51.32.97.83,1.02.51.05.97-.32,1.02-.83,0-.06,0-.13,0-.19Zm2.78,0c0-.51-.42-.93-.93-.93s-.93.42-.93.93c0,.51.42.93.93.93h0c.51,0,.93-.42.93-.93h0Zm2.77,0c-.05-.51-.51-.88-1.02-.83-.44.05-.78.39-.83.83-.05.51.32.97.83,1.02.51.05.97-.32,1.02-.83,0-.06,0-.13,0-.19Zm2.77,0c-.05-.51-.51-.88-1.02-.83-.44.05-.78.39-.83.83-.05.51.32.97.83,1.02.51.05.97-.32,1.02-.83,0-.06,0-.13,0-.19Zm2.78,0c0-.51-.42-.93-.93-.93s-.93.42-.93.93c0,.51.42.93.93.93h0c.51,0,.93-.42.93-.93h0Zm-13.87,7.4c.05-.51-.32-.97-.83-1.02-.51-.05-.97.32-1.02.83,0,.06,0,.13,0,.19.05.51.51.88,1.02.83.44-.05.78-.39.83-.83Zm2.77,0c0-.51-.41-.93-.92-.94-.51,0-.93.41-.94.92s.41.93.92.94c0,0,.01,0,.02,0,.51,0,.91-.41.92-.92h0Zm2.78,0c.05-.51-.32-.97-.83-1.02-.51-.05-.97.32-1.02.83,0,.06,0,.13,0,.19.05.51.51.88,1.02.83.44-.05.78-.39.83-.83Zm2.77,0c0-.51-.41-.93-.92-.94-.51,0-.93.41-.94.92s.41.93.92.94c0,0,.01,0,.02,0,.51,0,.91-.41.92-.92h0Zm2.77,0c0-.51-.41-.93-.92-.94-.51,0-.93.41-.94.92s.41.93.92.94c0,0,.01,0,.02,0,.51,0,.91-.41.92-.92h0Zm2.78,0c.05-.51-.32-.97-.83-1.02-.51-.05-.97.32-1.02.83,0,.06,0,.13,0,.19.05.51.51.88,1.02.83.44-.05.78-.39.83-.83Zm-4.39,10.63c0-.51-.42-.93-.93-.93s-.93.42-.93.93c0,.51.42.93.93.93h0c.51,0,.93-.42.93-.93h0s0,0,0,0Zm2.77,0c-.05-.51-.51-.88-1.02-.83-.44.05-.78.39-.83.83-.05.51.32.97.83,1.02.51.05.97-.32,1.02-.83,0-.06,0-.13,0-.19Zm2.77,0c-.05-.51-.51-.88-1.02-.83-.44.05-.78.39-.83.83-.05.51.32.97.83,1.02.51.05.97-.32,1.02-.83,0-.06,0-.13,0-.19Zm2.78,0c0-.51-.42-.93-.93-.93s-.93.42-.93.93c0,.51.42.93.93.93h0c.51,0,.93-.42.93-.93h0s0,0,0,0Zm2.77,0c-.05-.51-.51-.88-1.02-.83-.44.05-.78.39-.83.83-.05.51.32.97.83,1.02.51.05.97-.32,1.02-.83,0-.06,0-.13,0-.19Zm2.77,0c0-.51-.42-.92-.93-.91-.51,0-.92.42-.91.93,0,.5.42.91.92.91.51,0,.92-.41.92-.92,0,0,0,0,0-.01h0Zm-13.86,7.63c.05-.51-.32-.97-.83-1.02-.51-.05-.97.32-1.02.83,0,.06,0,.13,0,.19.05.51.51.88,1.02.83.44-.05.78-.39.83-.83Zm2.77,0c0-.51-.41-.93-.92-.94-.51,0-.93.41-.94.92s.41.93.92.94c0,0,.01,0,.02,0,.51,0,.91-.41.92-.92h0Zm2.77,0c0-.51-.41-.93-.92-.94-.51,0-.93.41-.94.92s.41.93.92.94c0,0,.01,0,.02,0,.51,0,.91-.41.92-.92h0Zm2.78,0c.05-.51-.32-.97-.83-1.02-.51-.05-.97.32-1.02.83,0,.06,0,.13,0,.19.05.51.51.88,1.02.83.44-.05.78-.39.83-.83Zm2.77,0c0-.51-.41-.93-.92-.94-.51,0-.93.41-.94.92s.41.93.92.94c0,0,.01,0,.02,0,.51,0,.91-.41.92-.92h0Zm2.77,0c0-.51-.41-.92-.92-.92s-.92.41-.92.92.41.92.92.92c.51,0,.91-.41.92-.92h0Z"/>
    <path class="cls-13" d="m188.1,32.04h-3.27c-.44,0-.8-.36-.8-.8s.36-.8.8-.8h3.24c.44,0,.8.36.8.8s-.36.8-.8.8h.03Zm.79,2.9c0-.44-.34-.79-.78-.8,0,0,0,0-.01,0h-3.27c-.44,0-.8.36-.8.8s.36.8.8.8h3.24c.44.02.8-.32.82-.76,0-.01,0-.03,0-.04Zm0,3.7c0-.44-.34-.79-.78-.8,0,0,0,0-.01,0h-3.27c-.44,0-.8.36-.8.8s.36.8.8.8h3.24c.44.02.8-.32.82-.76,0-.01,0-.03,0-.04Zm0,3.7c0-.44-.34-.79-.78-.8,0,0,0,0-.01,0h-3.27c-.44-.05-.83.27-.88.71-.05.44.27.83.71.88.06,0,.12,0,.18,0h3.24c.44.02.8-.32.82-.76,0-.01,0-.02,0-.03h0Zm0,3.69c0-.44-.35-.79-.79-.79h-3.27c-.44-.05-.83.27-.88.71-.05.44.27.83.71.88.06,0,.12,0,.18,0h3.24c.44.02.8-.32.82-.76,0-.01,0-.03,0-.04Zm0,3.7c0-.44-.35-.79-.79-.79h-3.27c-.44,0-.79.34-.8.78,0,0,0,0,0,.01,0,.44.36.8.8.8h3.24c.44.02.8-.32.82-.76,0-.01,0-.03,0-.04h0Zm0,3.7c0-.44-.34-.79-.78-.8,0,0,0,0-.01,0h-3.27c-.44,0-.8.36-.8.8s.36.8.8.8h3.24c.44.02.8-.32.82-.76,0-.01,0-.03,0-.04h0Zm0,3.7c0-.44-.34-.79-.78-.8,0,0,0,0-.01,0h-3.27c-.44,0-.8.36-.8.8s.36.8.8.8h3.24c.44.02.8-.32.82-.76,0-.01,0-.03,0-.04h0Zm12.11-25.89c0-.44-.36-.8-.8-.8h-8.49c-.44,0-.8.36-.8.8s.36.8.8.8h8.49c.44,0,.8-.36.8-.8h0Zm0,3.7c0-.44-.36-.8-.8-.8h-8.49c-.44,0-.8.36-.8.8s.36.8.8.8h8.49c.44,0,.8-.36.8-.8h0Zm0,3.7c0-.44-.36-.8-.8-.8h-8.49c-.44,0-.8.36-.8.8s.36.8.8.8h8.49c.44,0,.8-.36.8-.8h0Zm0,3.7c0-.44-.36-.8-.8-.8h-8.49c-.44-.05-.83.27-.88.71-.05.44.27.83.71.88.06,0,.12,0,.18,0h8.49c.44,0,.79-.34.8-.78,0,0,0,0,0-.01h0Zm0,3.69c0-.44-.35-.79-.79-.79,0,0,0,0-.01,0h-8.49c-.44-.05-.83.27-.88.71-.05.44.27.83.71.88.06,0,.12,0,.18,0h8.49c.44,0,.8-.36.8-.8h0Zm10.17,3.7c0-.44-.35-.79-.79-.79,0,0,0,0-.01,0h-8.49c-.44,0-.79.34-.8.78,0,0,0,0,0,.01,0,.44.36.8.8.8h8.49c.44,0,.8-.36.8-.8h0Zm0,3.7c0-.44-.36-.8-.8-.8h-8.49c-.44,0-.8.36-.8.8s.36.8.8.8h8.49c.44,0,.8-.36.8-.8h0Zm0,3.7c0-.44-.36-.8-.8-.8h-8.49c-.44,0-.8.36-.8.8s.36.8.8.8h8.49c.44,0,.8-.36.8-.8h0Zm-6.43-25.89c0-.51-.42-.93-.93-.93s-.93.42-.93.93.42.93.93.93h0c.51,0,.93-.42.93-.93h0Zm2.77,0c-.05-.51-.51-.88-1.02-.83-.44.05-.78.39-.83.83-.05.51.32.97.83,1.02.51.05.97-.32,1.02-.83,0-.06,0-.13,0-.19Zm2.78,0c0-.51-.42-.93-.93-.93s-.93.42-.93.93c0,.51.42.93.93.93h0c.51,0,.93-.42.93-.93h0Zm2.77,0c-.05-.51-.51-.88-1.02-.83-.44.05-.78.39-.83.83-.05.51.32.97.83,1.02.51.05.97-.32,1.02-.83,0-.06,0-.13,0-.19Zm2.77,0c-.05-.51-.51-.88-1.02-.83-.44.05-.78.39-.83.83-.05.51.32.97.83,1.02.51.05.97-.32,1.02-.83,0-.06,0-.13,0-.19Zm2.78,0c0-.51-.42-.93-.93-.93s-.93.42-.93.93c0,.51.42.93.93.93h0c.51,0,.93-.42.93-.93h0Zm-13.87,7.4c.05-.51-.32-.97-.83-1.02-.51-.05-.97.32-1.02.83,0,.06,0,.13,0,.19.05.51.51.88,1.02.83.44-.05.78-.39.83-.83Zm2.77,0c0-.51-.41-.93-.92-.94-.51,0-.93.41-.94.92s.41.93.92.94c0,0,.01,0,.02,0,.51,0,.91-.41.92-.92h0Zm2.78,0c.05-.51-.32-.97-.83-1.02-.51-.05-.97.32-1.02.83,0,.06,0,.13,0,.19.05.51.51.88,1.02.83.44-.05.78-.39.83-.83Zm2.77,0c0-.51-.41-.93-.92-.94-.51,0-.93.41-.94.92s.41.93.92.94c0,0,.01,0,.02,0,.51,0,.91-.41.92-.92h0Zm2.77,0c0-.51-.41-.93-.92-.94-.51,0-.93.41-.94.92s.41.93.92.94c0,0,.01,0,.02,0,.51,0,.91-.41.92-.92h0Zm2.78,0c.05-.51-.32-.97-.83-1.02-.51-.05-.97.32-1.02.83,0,.06,0,.13,0,.19.05.51.51.88,1.02.83.44-.05.78-.39.83-.83Zm-4.39,10.63c0-.51-.42-.93-.93-.93s-.93.42-.93.93c0,.51.42.93.93.93h0c.51,0,.93-.42.93-.93h0s0,0,0,0Zm2.77,0c-.05-.51-.51-.88-1.02-.83-.44.05-.78.39-.83.83-.05.51.32.97.83,1.02.51.05.97-.32,1.02-.83,0-.06,0-.13,0-.19Zm2.77,0c-.05-.51-.51-.88-1.02-.83-.44.05-.78.39-.83.83-.05.51.32.97.83,1.02.51.05.97-.32,1.02-.83,0-.06,0-.13,0-.19Zm2.78,0c0-.51-.42-.93-.93-.93s-.93.42-.93.93c0,.51.42.93.93.93h0c.51,0,.93-.42.93-.93h0s0,0,0,0Zm2.77,0c-.05-.51-.51-.88-1.02-.83-.44.05-.78.39-.83.83-.05.51.32.97.83,1.02.51.05.97-.32,1.02-.83,0-.06,0-.13,0-.19Zm2.77,0c0-.51-.42-.92-.93-.91-.51,0-.92.42-.91.93,0,.5.42.91.92.91.51,0,.92-.41.92-.92,0,0,0,0,0-.01h0Zm-13.86,7.63c.05-.51-.32-.97-.83-1.02-.51-.05-.97.32-1.02.83,0,.06,0,.13,0,.19.05.51.51.88,1.02.83.44-.05.78-.39.83-.83Zm2.77,0c0-.51-.41-.93-.92-.94-.51,0-.93.41-.94.92s.41.93.92.94c0,0,.01,0,.02,0,.51,0,.91-.41.92-.92h0Zm2.77,0c0-.51-.41-.93-.92-.94-.51,0-.93.41-.94.92s.41.93.92.94c0,0,.01,0,.02,0,.51,0,.91-.41.92-.92h0Zm2.78,0c.05-.51-.32-.97-.83-1.02-.51-.05-.97.32-1.02.83,0,.06,0,.13,0,.19.05.51.51.88,1.02.83.44-.05.78-.39.83-.83Zm2.77,0c0-.51-.41-.93-.92-.94-.51,0-.93.41-.94.92s.41.93.92.94c0,0,.01,0,.02,0,.51,0,.91-.41.92-.92h0Zm2.77,0c0-.51-.41-.92-.92-.92s-.92.41-.92.92.41.92.92.92c.51,0,.91-.41.92-.92h0Z"/>
    <path class="cls-13" d="m29.01,68.96h-3.24c-.44,0-.8-.36-.8-.8s.36-.8.8-.8h3.24c.44,0,.8.36.8.8s-.36.8-.8.8Zm.8,2.9c0-.44-.36-.8-.8-.8h-3.24c-.44,0-.8.36-.8.8s.36.8.8.8h3.24c.44.01.81-.34.82-.78,0,0,0-.01,0-.02h-.02Zm0,3.7c0-.44-.36-.8-.8-.8h-3.24c-.44,0-.8.36-.8.8s.36.8.8.8h3.24c.44.01.81-.34.82-.78,0-.02,0-.04,0-.06l-.02.04Zm0,3.7c0-.44-.36-.8-.8-.8h-3.24c-.44,0-.8.36-.8.8s.36.8.8.8h3.24c.44.01.81-.34.82-.78,0,0,0-.01,0-.02h-.02Zm0,3.7c0-.44-.36-.8-.8-.8h-3.24c-.44-.05-.83.27-.88.71-.05.44.27.83.71.88.06,0,.12,0,.18,0h3.24c.44.02.8-.32.82-.76,0-.01,0-.02,0-.03h-.02Zm0,3.69c0-.44-.35-.79-.79-.79,0,0,0,0-.01,0h-3.24c-.44-.05-.83.27-.88.71-.05.44.27.83.71.88.06,0,.12,0,.18,0h3.24c.44.01.81-.34.82-.78,0,0,0-.01,0-.02h-.02Zm0,3.7c0-.44-.36-.8-.8-.8h-3.24c-.44,0-.8.36-.8.8s.36.8.8.8h3.24c.44.01.81-.34.82-.78,0,0,0-.01,0-.02h-.02Zm0,3.7c0-.44-.36-.8-.8-.8h-3.24c-.44,0-.8.36-.8.8s.36.8.8.8h3.24c.44.01.81-.34.82-.78,0,0,0-.01,0-.02h-.02Zm12.1-25.89c0-.44-.36-.8-.8-.8h-8.49c-.44,0-.8.36-.8.8s.36.8.8.8h8.49c.44,0,.8-.36.8-.8h0Zm0,3.7c0-.44-.36-.8-.8-.8h-8.49c-.44,0-.8.36-.8.8s.36.8.8.8h8.49c.44,0,.8-.36.8-.8h0Zm0,3.7c0-.44-.36-.8-.8-.8h-8.49c-.44,0-.8.36-.8.8s.36.8.8.8h8.49c.44,0,.8-.36.8-.8,0-.01,0-.03,0-.04v.04Zm0,3.7c0-.44-.36-.8-.8-.8h-8.49c-.44,0-.8.36-.8.8s.36.8.8.8h8.49c.44,0,.8-.36.8-.8h0Zm0,3.7c0-.44-.36-.8-.8-.8h-8.49c-.44-.05-.83.27-.88.71-.05.44.27.83.71.88.06,0,.12,0,.18,0h8.49c.44,0,.79-.34.8-.78,0,0,0,0,0-.01h0Zm10.17,3.69c0-.44-.35-.79-.79-.79,0,0,0,0-.01,0h-8.45c-.44-.05-.83.27-.88.71-.05.44.27.83.71.88.06,0,.12,0,.18,0h8.49c.43-.02.77-.37.76-.8h0Zm0,3.7c0-.44-.36-.8-.8-.8h-8.45c-.44,0-.8.36-.8.8s.36.8.8.8h8.49c.43-.02.76-.37.76-.8h0Zm0,3.7c0-.44-.36-.8-.8-.8h-8.45c-.44,0-.8.36-.8.8s.36.8.8.8h8.49c.43-.02.76-.37.76-.8h0Zm-6.43-25.89c-.05-.51-.51-.88-1.02-.83-.44.05-.78.39-.83.83-.05.51.32.97.83,1.02.51.05.97-.32,1.02-.83,0-.06,0-.13,0-.19Zm2.77,0c-.05-.51-.51-.88-1.02-.83-.44.05-.78.39-.83.83-.05.51.32.97.83,1.02.51.05.97-.32,1.02-.83,0-.06,0-.13,0-.19Zm2.78,0c0-.51-.42-.93-.93-.93s-.93.42-.93.93c0,.51.42.93.93.93h0c.51,0,.93-.42.93-.93h0Zm2.77,0c-.05-.51-.51-.88-1.02-.83-.44.05-.78.39-.83.83-.05.51.32.97.83,1.02.51.05.97-.32,1.02-.83,0-.06,0-.13,0-.19Zm2.78,0c0-.51-.42-.93-.93-.93s-.93.42-.93.93c0,.51.42.93.93.93h0c.51,0,.93-.42.93-.93h0Zm2.77,0c0-.51-.42-.93-.93-.93s-.93.42-.93.93c0,.51.42.93.93.93h0c.51,0,.92-.4.93-.91,0,0,0-.01,0-.02h0Zm-13.87,7.36c0-.51-.41-.93-.92-.94s-.93.41-.94.92.41.93.92.94c0,0,.01,0,.02,0,.51,0,.91-.41.92-.92Zm2.77,0c0-.51-.41-.93-.92-.94s-.93.41-.94.92.41.93.92.94c0,0,.01,0,.02,0,.51,0,.91-.41.92-.92Zm2.78,0c.05-.51-.32-.97-.83-1.02-.51-.05-.97.32-1.02.83,0,.06,0,.13,0,.19.05.51.51.88,1.02.83.44-.05.78-.39.83-.83Zm2.77,0c0-.51-.41-.93-.92-.94s-.93.41-.94.92.41.93.92.94c0,0,.01,0,.02,0,.51,0,.91-.41.92-.92Zm2.78,0c.05-.51-.32-.97-.83-1.02-.51-.05-.97.32-1.02.83,0,.06,0,.13,0,.19.05.51.51.88,1.02.83.44-.05.78-.39.83-.83Zm2.77,0c.05-.51-.32-.97-.83-1.02-.51-.05-.97.32-1.02.83,0,.06,0,.13,0,.19.05.51.51.88,1.02.83.44-.05.78-.39.83-.83Zm-4.39,10.63c0-.51-.42-.93-.93-.93s-.93.42-.93.93c0,.51.42.93.93.93h0c.5,0,.91-.39.93-.89v-.04Zm2.77,0c-.05-.51-.51-.88-1.02-.83-.44.05-.78.39-.83.83-.05.51.32.97.83,1.02.51.05.97-.32,1.02-.83,0-.06,0-.13,0-.19Zm2.78,0c0-.51-.42-.93-.93-.93s-.93.42-.93.93c0,.51.42.93.93.93h0c.5,0,.91-.39.93-.89v-.04Zm2.77,0c0-.51-.42-.93-.93-.93s-.93.42-.93.93c0,.51.42.93.93.93h0c.5,0,.91-.39.93-.89v-.04Zm2.77,0c-.05-.51-.51-.88-1.02-.83-.44.05-.78.39-.83.83-.05.51.32.97.83,1.02.51.05.97-.32,1.02-.83,0-.06,0-.13,0-.19Zm2.78,0c0-.51-.42-.93-.93-.93s-.93.42-.93.93c0,.51.42.93.93.93h0c.5,0,.91-.39.93-.89v-.04Zm-13.87,7.67c0-.51-.41-.93-.92-.94s-.93.41-.94.92.41.93.92.94c0,0,0,0,0,0,.51,0,.92-.41.93-.92Zm2.77,0c0-.51-.41-.93-.92-.94s-.93.41-.94.92.41.93.92.94c0,0,.01,0,.02,0,.51,0,.92-.41.92-.92Zm2.78,0c0-.51-.41-.93-.92-.94s-.93.41-.94.92.41.93.92.94c0,0,0,0,0,0,.51,0,.92-.41.93-.92Zm2.77,0c0-.51-.41-.93-.92-.94s-.93.41-.94.92.41.93.92.94c0,0,0,0,0,0,.51,0,.92-.41.93-.92Zm2.77,0c0-.51-.41-.93-.92-.94s-.93.41-.94.92.41.93.92.94c0,0,.01,0,.02,0,.51,0,.92-.41.92-.92h0Zm2.78,0c0-.51-.41-.93-.92-.94s-.93.41-.94.92.41.93.92.94c0,0,0,0,0,0,.51,0,.92-.41.93-.92Z"/>
    <path class="cls-13" d="m29.01,98.52h-3.24c-.44,0-.8-.36-.8-.8s.36-.8.8-.8h3.24c.44,0,.8.36.8.8s-.36.8-.8.8Zm.8,2.9c0-.44-.36-.8-.8-.8h-3.24c-.44-.05-.83.27-.88.71-.05.44.27.83.71.88.06,0,.12,0,.18,0h3.24c.43.02.8-.32.82-.75l-.02-.04Zm0,3.69c0-.44-.35-.79-.79-.79,0,0,0,0-.01,0h-3.24c-.44-.05-.83.27-.88.71-.05.44.27.83.71.88.06,0,.12,0,.18,0h3.24c.43.01.8-.33.82-.76l-.02-.04Zm0,3.7c0-.44-.36-.8-.8-.8h-3.24c-.44,0-.8.36-.8.8s.36.8.8.8h3.24c.43.01.8-.33.82-.76l-.02-.04Zm0,3.7c0-.44-.36-.8-.8-.8h-3.24c-.44,0-.8.36-.8.8s.36.8.8.8h3.24c.44.01.81-.34.82-.78,0,0,0,0,0-.01h-.02Zm0,3.7c0-.44-.36-.8-.8-.8h-3.24c-.44,0-.8.36-.8.8s.36.8.8.8h3.24c.43.01.8-.33.82-.76l-.02-.04Zm0,3.7c0-.44-.36-.8-.8-.8h-3.24c-.44,0-.8.36-.8.8s.36.8.8.8h3.24c.43.01.8-.33.82-.76l-.02-.04Zm0,3.7c0-.44-.36-.8-.8-.8h-3.24c-.44,0-.8.36-.8.8,0,.44.35.79.79.79,0,0,0,0,.01,0h3.24c.43.02.8-.32.82-.75l-.02-.04Zm12.1-25.89c0-.44-.36-.8-.8-.8h-8.49c-.44,0-.8.36-.8.8s.36.8.8.8h8.49c.43,0,.78-.33.8-.76v-.04Zm0,3.7c0-.44-.36-.8-.8-.8h-8.49c-.44-.05-.83.27-.88.71-.05.44.27.83.71.88.06,0,.12,0,.18,0h8.49c.43,0,.78-.33.8-.75v-.04Zm0,3.69c0-.44-.35-.79-.79-.79,0,0,0,0-.01,0h-8.49c-.44-.05-.83.27-.88.71-.05.44.27.83.71.88.06,0,.12,0,.18,0h8.49c.43,0,.78-.33.8-.76v-.04Zm0,3.7c0-.44-.36-.8-.8-.8h-8.49c-.44,0-.8.36-.8.8s.36.8.8.8h8.49c.43,0,.78-.33.8-.76v-.04Zm0,3.7c0-.44-.36-.8-.8-.8h-8.49c-.44,0-.8.36-.8.8s.36.8.8.8h8.49c.44,0,.79-.35.8-.79h0Zm10.17,3.7c0-.44-.36-.8-.8-.8h-8.45c-.44,0-.8.36-.8.8s.36.8.8.8h8.49c.41-.02.74-.35.76-.76v-.04Zm0,3.7c0-.44-.36-.8-.8-.8h-8.45c-.44,0-.8.36-.8.8s.36.8.8.8h8.49c.41-.02.74-.35.76-.76v-.04Zm0,3.7c0-.44-.36-.8-.8-.8h-8.45c-.44,0-.8.36-.8.8,0,.44.35.79.79.79,0,0,0,0,.01,0h8.49c.41-.02.74-.34.76-.75v-.04Zm-6.43-25.89c0-.51-.41-.93-.92-.94s-.93.41-.94.92.41.93.92.94c0,0,.01,0,.02,0,.49,0,.89-.39.92-.88v-.04Zm2.77,0c0-.51-.41-.93-.92-.94s-.93.41-.94.92.41.93.92.94c0,0,.01,0,.02,0,.49,0,.89-.39.92-.88v-.04Zm2.78,0c.05-.51-.32-.97-.83-1.02-.51-.05-.97.32-1.02.83,0,.06,0,.13,0,.19.05.51.51.88,1.02.83.44-.05.78-.39.83-.83Zm2.77,0c0-.51-.41-.93-.92-.94s-.93.41-.94.92.41.93.92.94c0,0,.01,0,.02,0,.49,0,.89-.39.92-.88v-.04Zm2.78,0c.05-.51-.32-.97-.83-1.02-.51-.05-.97.32-1.02.83,0,.06,0,.13,0,.19.05.51.51.88,1.02.83.44-.05.78-.39.83-.83Zm2.77,0c.05-.51-.32-.97-.83-1.02-.51-.05-.97.32-1.02.83,0,.06,0,.13,0,.19.05.51.51.88,1.02.83.44-.05.78-.39.83-.83Zm-13.87,7.39c0-.51-.42-.93-.93-.93-.51,0-.93.42-.93.93s.42.93.93.93c0,0,0,0,0,0,.5,0,.9-.39.92-.89v-.04Zm2.77,0c-.05-.51-.51-.88-1.02-.83-.44.05-.78.39-.83.83-.05.51.32.97.83,1.02.51.05.97-.32,1.02-.83,0-.06,0-.13,0-.19Zm2.78,0c0-.51-.42-.93-.93-.93s-.93.42-.93.93c0,.51.42.93.93.93h0c.5,0,.91-.39.93-.89v-.04Zm2.77,0c-.05-.51-.51-.88-1.02-.83-.44.05-.78.39-.83.83-.05.51.32.97.83,1.02.51.05.97-.32,1.02-.83,0-.06,0-.13,0-.19Zm2.78,0c0-.51-.42-.93-.93-.93s-.93.42-.93.93c0,.51.42.93.93.93h0c.5,0,.91-.39.93-.89v-.04Zm2.77,0c0-.51-.42-.93-.93-.93s-.93.42-.93.93c0,.51.42.93.93.93h0c.5,0,.91-.39.93-.89v-.04Zm-4.39,10.64c.05-.51-.32-.97-.83-1.02-.51-.05-.97.32-1.02.83,0,.06,0,.13,0,.19.05.51.51.88,1.02.83.44-.05.78-.39.83-.83Zm2.77,0c0-.51-.41-.93-.92-.94s-.93.41-.94.92.41.93.92.94c0,0,.01,0,.02,0,.49,0,.89-.39.92-.88v-.04Zm2.78,0c.05-.51-.32-.97-.83-1.02-.51-.05-.97.32-1.02.83,0,.06,0,.13,0,.19.05.51.51.88,1.02.83.44-.05.78-.39.83-.83Zm2.77,0c.05-.51-.32-.97-.83-1.02-.51-.05-.97.32-1.02.83,0,.06,0,.13,0,.19.05.51.51.88,1.02.83.44-.05.78-.39.83-.83Zm2.77,0c0-.51-.41-.93-.92-.94s-.93.41-.94.92.41.93.92.94c0,0,.01,0,.02,0,.49,0,.89-.39.92-.88v-.04Zm2.78,0c.05-.51-.32-.97-.83-1.02-.51-.05-.97.32-1.02.83,0,.06,0,.13,0,.19.05.51.51.88,1.02.83.44-.05.78-.39.83-.83Zm-13.87,7.67c.05-.51-.32-.97-.83-1.02-.51-.05-.97.32-1.02.83,0,.06,0,.13,0,.19.05.51.51.88,1.02.83.44-.05.78-.39.83-.83Zm2.77,0c0-.51-.41-.93-.92-.94s-.93.41-.94.92c0,.51.41.93.92.94,0,0,.01,0,.02,0,.51,0,.92-.41.92-.92h0Zm2.78,0c.05-.51-.32-.97-.83-1.02-.51-.05-.97.32-1.02.83,0,.06,0,.13,0,.19.05.51.51.88,1.02.83.44-.05.78-.39.83-.83Zm2.77,0c.05-.51-.32-.97-.83-1.02-.51-.05-.97.32-1.02.83,0,.06,0,.13,0,.19.05.51.51.88,1.02.83.44-.05.78-.39.83-.83Zm2.77,0c0-.51-.41-.93-.92-.94s-.93.41-.94.92c0,.51.41.93.92.94,0,0,.01,0,.02,0,.51,0,.92-.41.92-.92t0,0Zm2.78,0c.05-.51-.32-.97-.83-1.02-.51-.05-.97.32-1.02.83,0,.06,0,.13,0,.19.05.51.51.88,1.02.83.44-.05.78-.39.83-.83Z"/>
    <path class="cls-13" d="m29.01,128.87h-3.24c-.44,0-.8-.36-.8-.8s.36-.8.8-.8h3.24c.44,0,.8.36.8.8s-.36.8-.8.8Zm.8,2.9c0-.44-.36-.8-.8-.8h-3.24c-.44-.05-.83.27-.88.71-.05.44.27.83.71.88.06,0,.12,0,.18,0h3.24c.44.02.8-.32.82-.76,0-.01,0-.02,0-.03h-.02Zm0,3.69c0-.44-.35-.79-.79-.79,0,0,0,0-.01,0h-3.24c-.44-.05-.83.27-.88.71-.05.44.27.83.71.88.06,0,.12,0,.18,0h3.24c.44.01.81-.34.82-.78,0,0,0-.01,0-.02h-.02Zm0,3.7c0-.44-.36-.8-.8-.8h-3.24c-.44,0-.8.36-.8.8s.36.8.8.8h3.24c.44.01.81-.34.82-.78,0,0,0-.01,0-.02h-.02Zm0,3.7c0-.44-.36-.8-.8-.8h-3.24c-.44,0-.8.36-.8.8s.36.8.8.8h3.24c.44.01.81-.34.82-.78,0,0,0-.01,0-.02h-.02Zm0,3.7c0-.44-.36-.8-.8-.8h-3.24c-.44,0-.8.36-.8.8s.36.8.8.8h3.24c.44.01.81-.34.82-.78,0-.02,0-.04,0-.06l-.02.04Zm0,3.7c0-.44-.36-.8-.8-.8h-3.24c-.44,0-.8.36-.8.8s.36.8.8.8h3.24c.44.01.81-.34.82-.78,0,0,0-.01,0-.02h-.02Zm0,3.7c0-.44-.36-.8-.8-.8h-3.24c-.44,0-.8.36-.8.8,0,.44.35.79.79.79,0,0,0,0,.01,0h3.24c.44.02.8-.32.82-.76,0-.01,0-.02,0-.03h-.02Zm12.1-25.89c0-.44-.36-.8-.8-.8h-8.49c-.44,0-.8.36-.8.8s.36.8.8.8h8.49c.44,0,.8-.36.8-.8h0s0,0,0,0Zm0,3.7c0-.44-.36-.8-.8-.8h-8.49c-.44-.05-.83.27-.88.71-.05.44.27.83.71.88.06,0,.12,0,.18,0h8.49c.44,0,.79-.34.8-.78,0,0,0,0,0-.01h0Zm0,3.69c0-.44-.35-.79-.79-.79,0,0,0,0-.01,0h-8.49c-.44-.05-.83.27-.88.71-.05.44.27.83.71.88.06,0,.12,0,.18,0h8.49c.44,0,.8-.36.8-.8h0s0,0,0,0Zm0,3.7c0-.44-.36-.8-.8-.8h-8.49c-.44,0-.8.36-.8.8s.36.8.8.8h8.49c.44,0,.8-.36.8-.8h0s0,0,0,0Zm0,3.7c0-.44-.36-.8-.8-.8h-8.49c-.44,0-.8.36-.8.8s.36.8.8.8h8.49c.44,0,.8-.36.8-.8h0s0,0,0,0Zm10.17,3.7c0-.44-.36-.8-.8-.8h-8.45c-.44,0-.8.36-.8.8s.36.8.8.8h8.49c.44-.02.78-.4.76-.84,0,0,0,0,0,0v.04Zm0,3.7c0-.44-.36-.8-.8-.8h-8.45c-.44,0-.8.36-.8.8s.36.8.8.8h8.49c.43-.02.76-.37.76-.8h0Zm0,3.7c0-.44-.36-.8-.8-.8h-8.45c-.44,0-.8.36-.8.8,0,.44.35.79.79.79,0,0,0,0,.01,0h8.49c.42-.02.76-.37.76-.79h0Zm-6.43-25.89c0-.51-.41-.93-.92-.94s-.93.41-.94.92c0,.51.41.93.92.94,0,0,.01,0,.02,0,.51,0,.91-.41.92-.92h0Zm2.77,0c0-.51-.41-.93-.92-.94s-.93.41-.94.92c0,.51.41.93.92.94,0,0,.01,0,.02,0,.51,0,.91-.41.92-.92h0Zm2.78,0c.05-.51-.32-.97-.83-1.02-.51-.05-.97.32-1.02.83,0,.06,0,.13,0,.19.05.51.51.88,1.02.83.44-.05.78-.39.83-.83Zm2.77,0c0-.51-.41-.93-.92-.94s-.93.41-.94.92c0,.51.41.93.92.94,0,0,.01,0,.02,0,.51,0,.91-.41.92-.92h0Zm2.78,0c.05-.51-.32-.97-.83-1.02-.51-.05-.97.32-1.02.83,0,.06,0,.13,0,.19.05.51.51.88,1.02.83.44-.05.78-.39.83-.83Zm2.77,0c.05-.51-.32-.97-.83-1.02-.51-.05-.97.32-1.02.83,0,.06,0,.13,0,.19.05.51.51.88,1.02.83.44-.05.78-.39.83-.83Zm-13.87,7.39c-.05-.51-.51-.88-1.02-.83-.44.05-.78.39-.83.83-.05.51.32.97.83,1.02.51.05.97-.32,1.02-.83,0-.06,0-.13,0-.19Zm2.77,0c-.05-.51-.51-.88-1.02-.83-.44.05-.78.39-.83.83-.05.51.32.97.83,1.02.51.05.97-.32,1.02-.83,0-.06,0-.13,0-.19Zm2.78,0c0-.51-.42-.93-.93-.93-.51,0-.93.42-.93.93,0,.51.42.93.93.93h0c.51,0,.93-.42.93-.93h0s0,0,0,0Zm2.77,0c-.05-.51-.51-.88-1.02-.83-.44.05-.78.39-.83.83-.05.51.32.97.83,1.02.51.05.97-.32,1.02-.83,0-.06,0-.13,0-.19Zm2.78,0c0-.51-.42-.93-.93-.93-.51,0-.93.42-.93.93,0,.51.42.93.93.93h0c.51,0,.93-.42.93-.93h0s0,0,0,0Zm2.77,0c0-.51-.42-.93-.93-.93-.51,0-.93.42-.93.93,0,.51.42.93.93.93h0c.51,0,.92-.4.93-.91,0,0,0-.01,0-.02h0Zm-4.39,10.64c.05-.51-.32-.97-.83-1.02-.51-.05-.97.32-1.02.83,0,.06,0,.13,0,.19.05.51.51.88,1.02.83.44-.05.78-.39.83-.83Zm2.77,0c0-.51-.41-.93-.92-.94s-.93.41-.94.92c0,.51.41.93.92.94,0,0,.01,0,.02,0,.51,0,.91-.41.92-.92h0Zm2.78,0c.05-.51-.32-.97-.83-1.02-.51-.05-.97.32-1.02.83,0,.06,0,.13,0,.19.05.51.51.88,1.02.83.44-.05.78-.39.83-.83Zm2.77,0c.05-.51-.32-.97-.83-1.02-.51-.05-.97.32-1.02.83,0,.06,0,.13,0,.19.05.51.51.88,1.02.83.44-.05.78-.39.83-.83Zm2.77,0c0-.51-.41-.93-.92-.94s-.93.41-.94.92c0,.51.41.93.92.94,0,0,.01,0,.02,0,.51,0,.91-.41.92-.92h0Zm2.78,0c.05-.51-.32-.97-.83-1.02-.51-.05-.97.32-1.02.83,0,.06,0,.13,0,.19.05.51.51.88,1.02.83.44-.05.78-.39.83-.83Zm-13.87,7.63c.05-.51-.32-.97-.83-1.02-.51-.05-.97.32-1.02.83,0,.06,0,.13,0,.19.05.51.51.88,1.02.83.44-.05.78-.39.83-.83Zm2.77,0c0-.51-.41-.93-.92-.94s-.93.41-.94.92c0,.51.41.93.92.94,0,0,.01,0,.02,0,.51,0,.92-.41.92-.92h0s0,0,0,0Zm2.78,0c.05-.51-.32-.97-.83-1.02-.51-.05-.97.32-1.02.83,0,.06,0,.13,0,.19.05.51.51.88,1.02.83.44-.05.78-.39.83-.83Zm2.77,0c.05-.51-.32-.97-.83-1.02-.51-.05-.97.32-1.02.83,0,.06,0,.13,0,.19.05.51.51.88,1.02.83.44-.05.78-.39.83-.83Zm2.77,0c0-.51-.41-.93-.92-.94s-.93.41-.94.92c0,.51.41.93.92.94,0,0,.01,0,.02,0,.51,0,.92-.41.92-.92h0s0,0,0,0Zm2.78,0c.05-.51-.32-.97-.83-1.02-.51-.05-.97.32-1.02.83,0,.06,0,.13,0,.19.05.51.51.88,1.02.83.44-.05.78-.39.83-.83Z"/>
    <path class="cls-13" d="m78.69,68.96h-3.23c-.44,0-.8-.36-.8-.8s.36-.8.8-.8h3.23c.44,0,.8.36.8.8s-.36.8-.8.8Zm.8,2.9c0-.44-.36-.8-.8-.8h-3.23c-.44,0-.8.36-.8.8s.36.8.8.8h3.23c.44,0,.8-.36.8-.8h0Zm0,3.7c0-.44-.36-.8-.8-.8h-3.23c-.44,0-.8.36-.8.8s.36.8.8.8h3.23c.44,0,.8-.36.8-.8,0-.01,0-.03,0-.04v.04Zm0,3.7c0-.44-.36-.8-.8-.8h-3.23c-.44,0-.8.36-.8.8s.36.8.8.8h3.23c.44,0,.8-.36.8-.8h0Zm0,3.7c0-.44-.36-.8-.8-.8h-3.23c-.44-.05-.83.27-.88.71-.05.44.27.83.71.88.06,0,.12,0,.18,0h3.23c.44,0,.79-.34.8-.78,0,0,0,0,0-.01h0Zm0,3.69c0-.44-.35-.79-.79-.79,0,0,0,0-.01,0h-3.23c-.44-.05-.83.27-.88.71-.05.44.27.83.71.88.06,0,.12,0,.18,0h3.23c.44,0,.8-.36.8-.8h0Zm0,3.7c0-.44-.36-.8-.8-.8h-3.23c-.44,0-.8.36-.8.8s.36.8.8.8h3.23c.44,0,.8-.36.8-.8h0Zm0,3.7c0-.44-.36-.8-.8-.8h-3.23c-.44,0-.8.36-.8.8s.36.8.8.8h3.23c.44,0,.8-.36.8-.8h0Zm12.11-25.89c0-.44-.36-.8-.8-.8h-8.5c-.44,0-.8.36-.8.8s.36.8.8.8h8.53c.43-.02.77-.37.77-.8h0Zm0,3.7c0-.44-.36-.8-.8-.8h-8.5c-.44,0-.8.36-.8.8s.36.8.8.8h8.53c.43-.02.77-.37.77-.8h0Zm0,3.7c0-.44-.36-.8-.8-.8h-8.5c-.44,0-.8.36-.8.8s.36.8.8.8h8.53c.44-.02.79-.39.77-.83,0,0,0,0,0-.01v.04Zm0,3.7c0-.44-.36-.8-.8-.8h-8.5c-.44,0-.8.36-.8.8s.36.8.8.8h8.53c.43-.02.77-.37.77-.8h0Zm0,3.7c0-.44-.36-.8-.8-.8h-8.5c-.44.05-.76.45-.71.88.04.37.33.66.71.71h8.53c.43-.01.77-.36.77-.79h0Zm10.17,3.69c0-.44-.35-.79-.79-.79,0,0,0,0-.01,0h-8.5c-.44.05-.76.45-.71.88.04.37.33.66.71.71h8.5c.44,0,.8-.36.8-.8h0Zm0,3.7c0-.44-.36-.8-.8-.8h-8.5c-.44,0-.8.36-.8.8s.36.8.8.8h8.5c.44,0,.8-.36.8-.8h0Zm0,3.7c0-.44-.36-.8-.8-.8h-8.5c-.44,0-.8.36-.8.8s.36.8.8.8h8.5c.44,0,.8-.36.8-.8h0Zm-6.44-25.89c0-.51-.42-.92-.93-.91-.51,0-.92.42-.91.93,0,.5.42.91.92.91.51,0,.92-.41.92-.92,0,0,0,0,0-.01h0Zm2.78,0c0-.51-.42-.93-.93-.93s-.93.42-.93.93.42.93.93.93h0c.51,0,.93-.42.93-.93h0Zm2.77,0c-.05-.51-.51-.88-1.02-.83-.44.05-.78.39-.83.83-.05.51.32.97.83,1.02.51.05.97-.32,1.02-.83,0-.06,0-.13,0-.19Zm2.78,0c0-.51-.42-.93-.93-.93s-.93.42-.93.93.42.93.93.93h0c.51,0,.93-.42.93-.93h0Zm2.77,0c-.05-.51-.51-.88-1.02-.83-.44.05-.78.39-.83.83-.05.51.32.97.83,1.02.51.05.97-.32,1.02-.83,0-.06,0-.13,0-.19Zm2.77,0c-.05-.51-.51-.88-1.02-.83-.44.05-.78.39-.83.83-.05.51.32.97.83,1.02.51.05.97-.32,1.02-.83,0-.06,0-.13,0-.19Zm-13.87,7.36c0-.51-.41-.92-.92-.92s-.92.41-.92.92.41.92.92.92h0c.51,0,.91-.41.92-.92Zm2.78,0c.05-.51-.32-.97-.83-1.02-.51-.05-.97.32-1.02.83,0,.06,0,.13,0,.19.05.51.51.88,1.02.83.44-.05.78-.39.83-.83Zm2.77,0c0-.51-.41-.93-.92-.94s-.93.41-.94.92.41.93.92.94c0,0,.01,0,.02,0,.51,0,.91-.41.92-.92Zm2.78,0c.05-.51-.32-.97-.83-1.02-.51-.05-.97.32-1.02.83,0,.06,0,.13,0,.19.05.51.51.88,1.02.83.44-.05.78-.39.83-.83Zm2.77,0c0-.51-.41-.93-.92-.94s-.93.41-.94.92.41.93.92.94c0,0,.01,0,.02,0,.51,0,.91-.41.92-.92Zm2.77,0c0-.51-.41-.93-.92-.94s-.93.41-.94.92.41.93.92.94c0,0,.01,0,.02,0,.51,0,.91-.41.92-.92h0Zm-4.37,10.67c-.05-.51-.51-.88-1.02-.83-.44.05-.78.39-.83.83-.05.51.32.97.83,1.02.51.05.97-.32,1.02-.83,0-.06,0-.13,0-.19Zm2.78,0c0-.51-.42-.93-.93-.93s-.93.42-.93.93.42.93.93.93h0c.51-.01.91-.42.91-.93h.02Zm2.77,0c-.05-.51-.51-.88-1.02-.83-.44.05-.78.39-.83.83-.05.51.32.97.83,1.02.51.05.97-.32,1.02-.83,0-.06,0-.13,0-.19Zm2.77,0c-.05-.51-.51-.88-1.02-.83-.44.05-.78.39-.83.83-.05.51.32.97.83,1.02.51.05.97-.32,1.02-.83,0-.06,0-.13,0-.19Zm2.78,0c0-.51-.42-.93-.93-.93s-.93.42-.93.93.42.93.93.93h0c.51-.01.91-.42.91-.93h.02Zm2.77,0c-.05-.51-.51-.88-1.02-.83-.44.05-.78.39-.83.83-.05.51.32.97.83,1.02.51.05.97-.32,1.02-.83,0-.06,0-.13,0-.19Zm-13.87,7.63c0-.51-.41-.93-.92-.94s-.93.41-.94.92.41.93.92.94c0,0,.01,0,.02,0,.51,0,.92-.41.92-.92Zm2.78,0c0-.51-.41-.93-.92-.94-.51,0-.93.41-.94.92s.41.93.92.94c0,0,0,0,0,0,.5-.01.9-.42.91-.92h.02Zm2.77,0c0-.51-.41-.93-.92-.94s-.93.41-.94.92.41.93.92.94c0,0,.01,0,.02,0,.5-.01.9-.42.9-.92h.02Zm2.77,0c0-.51-.41-.93-.92-.94s-.93.41-.94.92.41.93.92.94c0,0,.01,0,.02,0,.5-.01.9-.42.9-.92h.02Zm2.78,0c0-.51-.41-.93-.92-.94-.51,0-.93.41-.94.92s.41.93.92.94c0,0,0,0,0,0,.5-.01.9-.42.91-.92h.02Zm2.77,0c0-.51-.41-.93-.92-.94s-.93.41-.94.92.41.93.92.94c0,0,.01,0,.02,0,.5-.01.9-.42.9-.92h.02Z"/>
    <path class="cls-13" d="m78.69,99.27h-3.23c-.44,0-.8-.36-.8-.8s.36-.8.8-.8h3.23c.44,0,.8.36.8.8s-.36.8-.8.8Zm.8,2.9c0-.44-.36-.8-.8-.8h-3.23c-.44,0-.8.36-.8.8s.36.8.8.8h3.23c.44,0,.8-.36.8-.8h0Zm0,3.7c0-.44-.36-.8-.8-.8h-3.23c-.44,0-.8.36-.8.8s.36.8.8.8h3.23c.44,0,.8-.36.8-.8h0Zm0,3.7c0-.44-.36-.8-.8-.8h-3.23c-.44,0-.8.36-.8.8s.36.8.8.8h3.23c.44,0,.8-.36.8-.8h0Zm0,3.7c0-.44-.36-.8-.8-.8h-3.23c-.44-.05-.83.27-.88.71-.05.44.27.83.71.88.06,0,.12,0,.18,0h3.23c.44,0,.79-.34.8-.78,0,0,0,0,0-.01h0Zm0,3.69c0-.44-.35-.79-.79-.79,0,0,0,0-.01,0h-3.23c-.44-.05-.83.27-.88.71-.05.44.27.83.71.88.06,0,.12,0,.18,0h3.23c.44,0,.8-.36.8-.8h0Zm0,3.7c0-.44-.36-.8-.8-.8h-3.23c-.44,0-.8.36-.8.8s.36.8.8.8h3.23c.44,0,.8-.36.8-.8h0Zm0,3.7c0-.44-.36-.8-.8-.8h-3.23c-.44,0-.8.36-.8.8s.36.8.8.8h3.23c.44,0,.8-.36.8-.8h0Zm12.11-25.84c0-.44-.36-.8-.8-.8h-8.5c-.44,0-.8.36-.8.8s.36.8.8.8h8.53c.43-.02.77-.37.77-.8Zm0,3.7c0-.44-.36-.8-.8-.8h-8.5c-.44,0-.8.36-.8.8s.36.8.8.8h8.53c.44-.02.79-.39.77-.83,0,0,0-.01,0-.02v.05Zm0,3.7c0-.44-.36-.8-.8-.8h-8.5c-.44,0-.8.36-.8.8s.36.8.8.8h8.53c.44-.02.79-.39.77-.83,0,0,0-.01,0-.02v.05Zm0,3.7c0-.44-.36-.8-.8-.8h-8.5c-.44,0-.8.36-.8.8s.36.8.8.8h8.53c.44-.02.79-.39.77-.83,0,0,0-.01,0-.02v.05Zm0,3.7c0-.44-.36-.8-.8-.8h-8.5c-.44.05-.76.45-.71.88.04.37.33.66.71.71h8.53c.44-.01.78-.37.77-.81,0-.01,0-.02,0-.03v.05Zm10.17,3.69c0-.44-.35-.79-.79-.79,0,0,0,0-.01,0h-8.5c-.44.05-.76.45-.71.88.04.37.33.66.71.71h8.5c.44,0,.8-.36.8-.8,0-.02,0-.03,0-.05v.05Zm0,3.7c0-.44-.36-.8-.8-.8h-8.5c-.44,0-.8.36-.8.8s.36.8.8.8h8.5c.44,0,.8-.36.8-.8,0-.02,0-.03,0-.05v.05Zm0,3.7c0-.44-.36-.8-.8-.8h-8.5c-.44,0-.8.36-.8.8s.36.8.8.8h8.5c.44,0,.8-.36.8-.8,0-.02,0-.03,0-.05v.05Zm-6.44-25.89c0-.51-.42-.92-.93-.91-.51,0-.92.42-.91.93,0,.5.42.91.92.91.51,0,.92-.41.92-.92,0,0,0,0,0-.01Zm2.78,0c0-.51-.42-.93-.93-.93s-.93.42-.93.93.42.93.93.93h0c.51,0,.93-.42.93-.93Zm2.77,0c-.05-.51-.51-.88-1.02-.83-.44.05-.78.39-.83.83-.05.51.32.97.83,1.02.51.05.97-.32,1.02-.83,0-.06,0-.13,0-.19Zm2.78,0c0-.51-.42-.93-.93-.93s-.93.42-.93.93.42.93.93.93h0c.51,0,.93-.42.93-.93Zm2.77,0c-.05-.51-.51-.88-1.02-.83-.44.05-.78.39-.83.83-.05.51.32.97.83,1.02.51.05.97-.32,1.02-.83,0-.06,0-.13,0-.19Zm2.77,0c-.05-.51-.51-.88-1.02-.83-.44.05-.78.39-.83.83-.05.51.32.97.83,1.02.51.05.97-.32,1.02-.83,0-.06,0-.13,0-.19Zm-13.87,7.4c0-.51-.41-.92-.92-.92s-.92.41-.92.92.41.92.92.92h0c.51,0,.93-.43.92-.94,0-.01,0-.02,0-.03v.05Zm2.78,0c.05-.51-.32-.97-.83-1.02-.51-.05-.97.32-1.02.83,0,.06,0,.13,0,.19.05.51.51.88,1.02.83.44-.05.78-.39.83-.83Zm2.77,0c0-.51-.41-.93-.92-.94s-.93.41-.94.92.41.93.92.94c0,0,.01,0,.02,0,.51,0,.93-.43.92-.94,0-.01,0-.02,0-.03v.05Zm2.78,0c.05-.51-.32-.97-.83-1.02-.51-.05-.97.32-1.02.83,0,.06,0,.13,0,.19.05.51.51.88,1.02.83.44-.05.78-.39.83-.83Zm2.77,0c0-.51-.41-.93-.92-.94s-.93.41-.94.92.41.93.92.94c0,0,.01,0,.02,0,.51,0,.93-.43.92-.94,0-.01,0-.02,0-.03v.05Zm2.77,0c0-.51-.41-.93-.92-.94s-.93.41-.94.92.41.93.92.94c0,0,.01,0,.02,0,.51,0,.93-.43.92-.94,0-.01,0-.02,0-.03v.05Zm-4.37,10.6c-.05-.51-.51-.88-1.02-.83-.44.05-.78.39-.83.83-.05.51.32.97.83,1.02.51.05.97-.32,1.02-.83,0-.06,0-.13,0-.19Zm2.78,0c0-.51-.42-.93-.93-.93s-.93.42-.93.93.42.93.93.93h0c.51-.01.91-.42.91-.93h.02Zm2.77,0c-.05-.51-.51-.88-1.02-.83-.44.05-.78.39-.83.83-.05.51.32.97.83,1.02.51.05.97-.32,1.02-.83,0-.06,0-.13,0-.19Zm2.77,0c-.05-.51-.51-.88-1.02-.83-.44.05-.78.39-.83.83-.05.51.32.97.83,1.02.51.05.97-.32,1.02-.83,0-.06,0-.13,0-.19Zm2.78,0c0-.51-.42-.93-.93-.93s-.93.42-.93.93.42.93.93.93h0c.51-.01.91-.42.91-.93h.02Zm2.77,0c-.05-.51-.51-.88-1.02-.83-.44.05-.78.39-.83.83-.05.51.32.97.83,1.02.51.05.97-.32,1.02-.83,0-.06,0-.13,0-.19Zm-13.87,7.61c0-.51-.41-.93-.92-.94s-.93.41-.94.92c0,.51.41.93.92.94,0,0,.01,0,.02,0,.51,0,.92-.41.92-.92h0Zm2.78,0c0-.51-.41-.93-.92-.94-.51,0-.93.41-.94.92,0,.51.41.93.92.94,0,0,0,0,0,0,.5-.01.9-.42.91-.92h.02Zm2.77,0c0-.51-.41-.93-.92-.94s-.93.41-.94.92c0,.51.41.93.92.94,0,0,.01,0,.02,0,.5-.01.9-.42.9-.92h.02Zm2.77,0c0-.51-.41-.93-.92-.94s-.93.41-.94.92c0,.51.41.93.92.94,0,0,.01,0,.02,0,.5-.01.9-.42.9-.92h.02Zm2.78,0c0-.51-.41-.93-.92-.94-.51,0-.93.41-.94.92,0,.51.41.93.92.94,0,0,0,0,0,0,.5-.01.9-.42.91-.92h.02Zm2.77,0c0-.51-.41-.93-.92-.94s-.93.41-.94.92c0,.51.41.93.92.94,0,0,.01,0,.02,0,.5-.01.9-.42.9-.92h.02Z"/>
  </g>
  <g id="freepik--Chair--inject-37">
    <path class="cls-8" d="m28.33,271.8s-7-95-12.5-118.5,21.5-28.5,60.5-31.5,57-.5,65.5,5,12.27,70.43,18,93.5,10,53,10,53l-141.5-1.5Z"/>
  </g>
  <g id="freepik--Plants--inject-37">
    <path class="cls-13" d="m373.1,193.07c-5.35,6.69-8,10.42-9.1,12.11,1.4-7.36,3.45-14.58,6.11-21.59,2-5.43,3.25-11.11,3.72-16.88l-.5.27-.46-.89c.18-.1,18.42-9.78,23.58-18.91l.87.5c-4.66,8.24-19.06,16.59-23,18.76,3.74-.36,15.42-2.13,22.37-10.72,8.35-10.31,6.88-23.09,6.88-23.09,0,0-15.74,10.81-22.12,19.16-2.98,3.82-5.47,7.99-7.44,12.41.28-6.81-.24-13.62-1.55-20.31,5.25-4.13,24.56-20,26.68-31.9,2.46-13.75-1-37.34-1-37.34-1.98,4.89-4.28,9.65-6.88,14.25-4.42,7.86-18.18,20.15-20.64,33.41-.63,3.32-.96,6.68-1,10.06-2.22-7.4-4.87-14.66-7.94-21.75-.81-1.9-1.48-3.85-2-5.85h0l-.43-.26c.09-.15,8.95-15.09,8.95-19.38h1c0,4-6.76,15.9-8.63,19.1,3.09-1.86,8.13-5.67,10-11.59,2.82-8.79-1.35-16.71-1.35-16.71,0,0-7.47,11-9.51,18-.96,3.2-1.54,6.51-1.71,9.85-1.43-3.64-3.62-8.58-6.14-11.93-4.42-5.9-7.37-14.74-7.37-14.74,0,0-5.4,9.33-1.47,19.16,3.23,8.07,12.42,11.17,15.6,12,.35,1.07.74,2.11,1.17,3.11,4.3,9.74,7.67,19.86,10.06,30.24-2.29-3.05-6.61-8.42-10.7-11.42-5.94-4.36-11.33-12-11.33-12,0,0-2.46,10.5,4.15,18.77,5.4,6.75,15,7.08,18.36,7,2.27,11.9,2.53,24.32-1.32,36.32-.25-2.33-1.65-8.67-9.37-15.76-9.74-9-29.23-37.6-29.23-37.6,0,0,1.55,33.81,10.89,44.92,8.56,10.19,24.72,9.59,27.38,9.42-.18.53-.36,1.06-.56,1.59-6.15,16.53-7.45,28.12-7.6,34.25h-11.5v53.56h31.94v-53.53h-18.3c.12-3.49.48-6.98,1.08-10.42l-.33.09-.27-1c.2-.05,20.21-5.69,34.2-20.08l.72.69c-11.29,11.62-26.43,17.6-32.24,19.58,5.78-.71,19.89-2.84,26.44-7.08,8.36-5.4,15.73-21.62,15.73-21.62,0,0-27.03,5.94-34.89,15.77Zm-15.2-87c-6.62-3.52-11.32-9.81-12.82-17.16l1-.2c1.42,7.04,5.91,13.08,12.25,16.45l-.43.91Zm14.14,38.16l-.21.29-.38-.16c-.56-.22-13.63-5.6-18.95-13.37l.83-.57c4.65,6.81,15.91,11.91,18.12,12.86,1.69-2.6,12.31-19.08,16-29.44l.94.34c-4.04,11.34-16.22,29.84-16.35,30.03v.02Zm-4.65,36.67c-.15-.05-15.73-5.92-22.67-19.38l.89-.45c6.76,13.11,22,18.84,22.13,18.9l-.35.93Z"/>
  </g>
  <g id="freepik--Character--inject-37">
    <path class="cls-1" d="m149.32,135.72s-28.51,6.05-52.27,19.44-42.33,24.19-42.33,29.36-9.51,87.26-9.51,87.26h216s-21.17-45.36-24.62-64.8-7.35-32-18.58-44.49-44.07-28.49-68.69-26.77Z"/>
    <g class="cls-9">
      <g>
        <path class="cls-13" d="m65.58,214.87c3.2-2.28,9.6,15.08,11.42,11,1.82-4.08-11.42-24.67-12.33-32s7.76-8.23,17.82-15.08c10.06-6.85,19.19-12.34,19.19-3.2s4.11,26,7.31,19.19,10.05-15.53,10.5-3.66,0,23.76,1.38,23.76,13.7-12.79,16.9-19.19-3.66-22.84-3.66-30.15,6.4-17.36,6.4-17.36l.41-10.35c-10.23,2.8-28.09,8.45-43.87,17.34-23.76,13.35-42.33,24.18-42.33,29.35s-9.51,87.26-9.51,87.26h11.82c2.2-20.33,6.29-55.26,8.55-56.91Z"/>
        <path class="cls-2" d="m65.58,214.87c3.2-2.28,9.6,15.08,11.42,11,1.82-4.08-11.42-24.67-12.33-32s7.76-8.23,17.82-15.08c10.06-6.85,19.19-12.34,19.19-3.2s4.11,26,7.31,19.19,10.05-15.53,10.5-3.66,0,23.76,1.38,23.76,13.7-12.79,16.9-19.19-3.66-22.84-3.66-30.15,6.4-17.36,6.4-17.36l.41-10.35c-10.23,2.8-28.09,8.45-43.87,17.34-23.76,13.35-42.33,24.18-42.33,29.35s-9.51,87.26-9.51,87.26h11.82c2.2-20.33,6.29-55.26,8.55-56.91Z"/>
        <path class="cls-8" d="m203.26,155.89s15,7.33,20.67,14.67c-4.56-7.87-11.42-14.16-19.67-18l-1,3.33Z"/>
      </g>
    </g>
    <path class="cls-7" d="m149.32,135.72s-28.51,6.05-52.27,19.44-42.33,24.19-42.33,29.36-9.51,87.26-9.51,87.26h216s-21.17-45.36-24.62-64.8-7.35-32-18.58-44.49-44.07-28.49-68.69-26.77Z"/>
    <path class="cls-1" d="m139.83,138.75c-7.85,4.87-12.84,13.24-13.4,22.46-.86,15.55,0,31.54-.86,40.17s-6.91,15.56-2.16,15.12,15.55-17.71,19.44-17.71,5.18,8.21,6.91,10.8,7.8,3.68,7.8,3.68c0,0,5.59-6.7,5.59-8.86s-1.73-9.51,3-8.64,15.11,17.28,15.55,12.09-4.76-13-4.76-25.48-6-27.22-14.68-36.29-13.59-8.01-22.43-7.34Z"/>
    <g class="cls-5">
      <g>
        <path class="cls-13" d="m140.89,138.66l-1.07.09c-7.85,4.87-12.84,13.24-13.4,22.46-.86,15.55,0,31.54-.86,40.17-.56,5.56-3.25,10.4-3.84,13,3.17-2.33,13.21-13.05,16.05-18.73,3.2-6.39-3.66-22.84-3.66-30.15s6.4-17.36,6.4-17.36l.38-9.48Z"/>
        <path class="cls-2" d="m140.89,138.66l-1.07.09c-7.85,4.87-12.84,13.24-13.4,22.46-.86,15.55,0,31.54-.86,40.17-.56,5.56-3.25,10.4-3.84,13,3.17-2.33,13.21-13.05,16.05-18.73,3.2-6.39-3.66-22.84-3.66-30.15s6.4-17.36,6.4-17.36l.38-9.48Z"/>
      </g>
    </g>
    <path class="cls-7" d="m139.83,138.75c-7.85,4.87-12.84,13.24-13.4,22.46-.86,15.55,0,31.54-.86,40.17s-6.91,15.56-2.16,15.12,15.55-17.71,19.44-17.71,5.18,8.21,6.91,10.8,7.8,3.68,7.8,3.68c0,0,5.59-6.7,5.59-8.86s-1.73-9.51,3-8.64,15.11,17.28,15.55,12.09-4.76-13-4.76-25.48-6-27.22-14.68-36.29-13.59-8.01-22.43-7.34Z"/>
    <path class="cls-1" d="m143.42,138.86c-3.32,7.92-5.08,16.41-5.18,25,0,13.66,7.06,27.79,9.89,34.38s9.42,15.07,9.42,15.07c0,0-.48-17.42,3.76-25.9s8-14.6,8-14.6c0,0-5.18-5.18-12.72-16.95s-13.17-17-13.17-17Z"/>
    <g class="cls-4">
      <g>
        <path class="cls-13" d="m166.04,178.42l-1.77-11.64c-2.07-2.68-4.68-6.3-7.67-11-7.53-11.78-13.18-17-13.18-17-3.32,7.92-5.08,16.41-5.18,25,.11,5.37.98,10.69,2.59,15.81l25-.8.21-.37Z"/>
        <path class="cls-2" d="m166.04,178.42l-1.77-11.64c-2.07-2.68-4.68-6.3-7.67-11-7.53-11.78-13.18-17-13.18-17-3.32,7.92-5.08,16.41-5.18,25,.11,5.37.98,10.69,2.59,15.81l25-.8.21-.37Z"/>
        <path class="cls-8" d="m156.6,155.82c-7.53-11.78-13.18-17-13.18-17-3.32,7.92-5.08,16.41-5.18,25,.02,2.82.29,5.63.8,8.4l21.08.65,5.15-4.81c-3.09-3.93-5.99-8.02-8.67-12.24Z"/>
      </g>
    </g>
    <path class="cls-7" d="m143.42,138.86c-3.32,7.92-5.08,16.41-5.18,25,0,13.66,7.06,27.79,9.89,34.38s9.42,15.07,9.42,15.07c0,0-.48-17.42,3.76-25.9s8-14.6,8-14.6c0,0-5.18-5.18-12.72-16.95s-13.17-17-13.17-17Z"/>
    <path class="cls-7" d="m111.74,168.99s9.5-22.9,25.05-28.51"/>
    <path class="cls-7" d="m70.7,187.99s13,21.17,14.69,39.31"/>
    <path class="cls-7" d="m86.68,207.43s4.32,27.22,4.32,41c-.07,7.83.66,15.65,2.16,23.33"/>
    <path class="cls-7" d="m90.57,242.42c2.44-10.62,3.6-21.5,3.46-32.4"/>
    <path class="cls-7" d="m208.93,207.86s1.3,15.56,4.32,34.56,4.75,28.51,4.75,28.51"/>
    <path class="cls-3" d="m138.47,244.71s-9.15,18.63-10.5,21.34-3.39,7.45-3.39,7.45h16.25s9.14-6.1,10.16-6.44,6.77,0,10.83-1.69,8.13-6.1,12.19-7.11,9.48-2.71,11.18-2.71,7.45,1.69,11.17,1.69,8.47-3.72,5.47-5.41-5.42-.68-9.48-2.71-5.42-2.71-9.48-2-7.45-1.69-17.27-3.72-21.04-2.75-27.13,1.31Z"/>
    <path class="cls-3" d="m166.83,234.31s5.33-4.54,9.71-2.35,2.35,16.29,3.45,21.93,2.35,8.61-.47,8.93-3.92-1.88-6.11-6.89-6.58-21.62-6.58-21.62Z"/>
    <path class="cls-3" d="m153.83,237.13s7.05-6.27,10.18-6.27,5.64,11.12,8,16,5.82,10.66,4.38,12.2-4.39,2.19-6.9-.47-8-14.41-9.55-16.29c-1.89-1.89-3.93-3.62-6.11-5.17Z"/>
    <path class="cls-3" d="m146.62,239.32s.47-2.19,7.21-2.19,12.53,9.4,16.6,11.59,2.82,3.13-.15,4.54-4.86-.15-10.81-3.44-12.85-10.5-12.85-10.5Z"/>
    <path class="cls-3" d="m139.14,254.87l4.75-7.79c2.21.44,4.29,1.36,6.09,2.71,2.37,2,6.77,6.1,12.19,6.1s7.11-1.69,5.08-3.39-8.13-4.74-12.53-7.79-7.79-8.12-11.17-7.11-5.72,7.45-9.48,15.92"/>
    <path class="cls-1" d="m214.92,105.68s-1.31,19.35-3.4,26.15-5,27.73-11.25,36.88-14.38,17-23.54,17.53-21.44-15.7-28.51-26.16-7.84-20.92-10.2-31.12-2.87-22,.79-31.13,22-20.4,37.4-19.09,34.78,9.42,38.71,15.43c2.29,3.5,2.29,8.01,0,11.51Z"/>
    <g class="cls-11">
      <g>
        <path class="cls-13" d="m138.83,97.83c-3.66,9.16-3.14,20.93-.79,31.13s3.14,20.66,10.2,31.12,19.36,26.68,28.51,26.16c3.77-.32,7.38-1.63,10.47-3.8l-4.65.45c-9.6.91-14.17-5.48-20.11-17.82s-2.28-19.64-4.57-21.93-2.28-18.73-2.28-18.73c0,0,1.83-7.31,2.74-10s10.51-6.4,10.51-6.4c0,0,0,6.85,6.58,6.35s11.24-7.72,11.24-7.72l-.92-26.33c-3.14-.72-6.32-1.23-9.53-1.52-15.4-1.36-33.76,9.89-37.4,19.04Z"/>
        <path class="cls-2" d="m138.83,97.83c-3.66,9.16-3.14,20.93-.79,31.13s3.14,20.66,10.2,31.12,19.36,26.68,28.51,26.16c3.77-.32,7.38-1.63,10.47-3.8l-4.65.45c-9.6.91-14.17-5.48-20.11-17.82s-2.28-19.64-4.57-21.93-2.28-18.73-2.28-18.73c0,0,1.83-7.31,2.74-10s10.51-6.4,10.51-6.4c0,0,0,6.85,6.58,6.35s11.24-7.72,11.24-7.72l-.92-26.33c-3.14-.72-6.32-1.23-9.53-1.52-15.4-1.36-33.76,9.89-37.4,19.04Z"/>
      </g>
    </g>
    <path class="cls-7" d="m214.92,105.68s-1.31,19.35-3.4,26.15-5,27.73-11.25,36.88-14.38,17-23.54,17.53-21.44-15.7-28.51-26.16-7.84-20.92-10.2-31.12-2.87-22,.79-31.13,22-20.4,37.4-19.09,34.78,9.42,38.71,15.43c2.29,3.5,2.29,8.01,0,11.51Z"/>
    <path class="cls-7" d="m188.5,131.57s.26,13.34,7.06,16.74c.83.3,1.25,1.21.95,2.04-.04.11-.1.22-.16.32-.79,1.83-6.8,2.87-11-.27"/>
    <path class="cls-13" d="m194.28,120.24c-.83,0-1.5-.67-1.5-1.5,0-.45.2-.87.55-1.16.24-.2,6-4.84,15.16-1.63.78.28,1.19,1.13.92,1.91-.28.78-1.13,1.19-1.92.92-7.57-2.66-12.21,1.08-12.25,1.12-.27.22-.61.34-.96.34Z"/>
    <path class="cls-13" d="m178.52,118.41c-.53,0-1.03-.28-1.3-.74-.16-.27-3.76-6.19-10.84-5.21-.82.11-1.58-.46-1.69-1.28-.11-.82.46-1.58,1.28-1.7,9.12-1.26,13.65,6.35,13.84,6.68.42.72.17,1.63-.54,2.05-.23.13-.49.2-.75.2Z"/>
    <line class="cls-7" x1="182.98" y1="164.77" x2="187.21" y2="164.77"/>
    <path class="cls-13" d="m144.56,67.52s-17,5.5-18.31,12.3,7.33,30.6,7.07,33.47-2.88,5.24,0,9.42,8.1,10.46,10.2,7.06-.79-8.37,2.61-10.46,8.11-5.49,5.49-9.94-1.3-11,4.19-11.77,10.2-4.44,7.32-.26-11.24,14.39-6.8,15.17,22-11,22-11c0,0-6,12-2.88,12.81s27.73-15.43,27.73-15.43c0,0,11.77,15.43,14.12,14.38s.79-9.67.79-9.67c0,0,1.83,11.51,5.49,12s8.63-5.76,7.06-9.68-4.21-9.4-4.21-9.4c0,0,5.23-1.31,7.32-3.67s1.83-2.61-2.62-3.4-7.84-5.75-12-10.2-11-10.46-11-10.46c0,0,7.84,3.4,3.66-.52s-26.42-12.82-38.45-12.82-16.51,6.29-16.51,6.29c0,0,2.09-7.85-.27-6.8s-5,7.32-5,7.32c0,0-5.49-1.57-8.36.27s-3.67,3.66-1.31,3.66c1.32-.02,2.65.16,3.92.52l-1.25.81Z"/>
    <g class="cls-6">
      <g class="cls-12">
        <path class="cls-1" d="m143.52,129.74c2.09-3.4-.79-8.37,2.61-10.46s8.11-5.49,5.49-9.94-1.3-11,4.19-11.77c4.13-.59,7.82-2.81,8.17-2.08,1.77-2.44,2.53-4.3,0-3.55-4.86,1.46-19.92,3.89-18.47,8.75s2.43,7.28-1.45,8.74-3.89,4.86-3.89,8.75c0,3.32-1.57,8.83-2,10.36,2.11,1.98,4.2,3.07,5.35,1.2Z"/>
        <path class="cls-1" d="m218.06,103.59l.34,4.87s.07.29.16.77c0-1.8-.16-3.6-.46-5.37.31,1.73,2.12,11.28,5.45,11.76,3.66.52,8.63-5.76,7.06-9.68-.34-.84-.73-1.76-1.12-2.68-1.21,1.89-2.87,3.74-4.77,3.74-3.89,0-6.66-3.41-6.66-3.41Z"/>
        <path class="cls-1" d="m212.89,110.33c-3.22-7.24-6.75-16.63-8.58-19.36-2.91-4.37-13.12,11.66-21.86,17-3.57,2.18-6.14,3.13-7.77,3.15-.32,1.67-.21,3,.74,3.19,3.14.79,27.73-15.43,27.73-15.43,3.04,3.99,6.29,7.81,9.74,11.45Z"/>
        <path class="cls-1" d="m155.3,109.65c-.48,1.51-.3,2.59,1,2.83,3.36.59,14.16-6,19.26-9.22,2.89-3.55,6.47-5.74,6.86-8.89.48-3.89-18,11.66-24.29,14.58-.86.49-1.84.73-2.83.7Z"/>
      </g>
    </g>
    <path class="cls-7" d="m144.56,67.52s-17,5.5-18.31,12.3,7.33,30.6,7.07,33.47-2.88,5.24,0,9.42,8.1,10.46,10.2,7.06-.79-8.37,2.61-10.46,8.11-5.49,5.49-9.94-1.3-11,4.19-11.77,10.2-4.44,7.32-.26-11.24,14.39-6.8,15.17,22-11,22-11c0,0-6,12-2.88,12.81s27.73-15.43,27.73-15.43c0,0,11.77,15.43,14.12,14.38s.79-9.67.79-9.67c0,0,1.83,11.51,5.49,12s8.63-5.76,7.06-9.68-4.21-9.4-4.21-9.4c0,0,5.23-1.31,7.32-3.67s1.83-2.61-2.62-3.4-7.84-5.75-12-10.2-11-10.46-11-10.46c0,0,7.84,3.4,3.66-.52s-26.42-12.82-38.45-12.82-16.51,6.29-16.51,6.29c0,0,2.09-7.85-.27-6.8s-5,7.32-5,7.32c0,0-5.49-1.57-8.36.27s-3.67,3.66-1.31,3.66c1.32-.02,2.65.16,3.92.52l-1.25.81Z"/>
    <path class="cls-13" d="m183.22,121.24s-3.82-4.11-14.1-3.82-17.63,2.06-19.68,3.24-.88,2.64-.3,4.7,2.06,11.74,4.41,15.56,8.52,7.05,12.63,7.05,6.46-.88,10.87-4.11,7.34-15,7.64-15.86,0-2.64,2.93-1.76,3.23,13.8,4.12,16.45,6.75,6.16,11.45,6.16,9.11-2.35,12.93-9.1c2.28-4.01,3.21-8.65,2.64-13.23,0,0,4.11-3.23.88-4.41s-14.34-4.26-21.44-2.05c-8.52,2.65-12.93,2.06-14.98,1.18Z"/>
    <path class="cls-13" d="m150.91,120.95l-19.69,2.64v2.35l19.39-1.17s-1.78-2.94.3-3.82Z"/>
    <path class="cls-1" d="m215.94,127.04c.43,3.92-.38,7.87-2.32,11.3-3.87,6.86-7.79,7.65-10.44,7.65-5.76,0-8.7-3.06-9.34-8.37-.77-6.36-1.45-10.79-3.45-12.92,2.94-.35,5.84-.99,8.66-1.9,1.65-.46,3.36-.67,5.07-.64,4.37.12,7.04.97,11.22,2.25l.3.94.3,1.69Z"/>
    <path class="cls-1" d="m183.34,124.3c-.68.74-1.13,1.67-1.27,2.67v.19s-.09.29-.19.65c-2.92,10.31-5.45,13.05-6.41,13.75-4.27,3.03-6.05,3.55-9.29,3.55-3,0-8.31-2.63-10.19-5.69-1.51-2.44-2.77-8.62-3.45-11.93-.27-1.34-.47-2.31-.64-2.92s-.31-.95-.47-1.39l-.09-.25c2.31-1,8.85-2.38,17.86-2.64h1c7.89,0,10.93,2.88,11,2.91l.41.45.56.24c.38.16.77.29,1.17.41Z"/>
    <path class="cls-1" d="m144.56,135.23s-6.27-14.64-11.77-14.64-5.23,12.29-1.83,18.83,10.73,9.15,12.82,5.23"/>
    <g class="cls-14">
      <g>
        <path class="cls-13" d="m144.56,135.23s-6.27-14.64-11.77-14.64-5.23,12.29-1.83,18.83,10.73,9.15,12.82,5.23"/>
        <path class="cls-2" d="m144.56,135.23s-6.27-14.64-11.77-14.64-5.23,12.29-1.83,18.83,10.73,9.15,12.82,5.23"/>
      </g>
    </g>
    <path class="cls-7" d="m144.56,135.23s-6.27-14.64-11.77-14.64-5.23,12.29-1.83,18.83,10.73,9.15,12.82,5.23"/>
    <path class="cls-7" d="m130.97,129.52s-.8-6.37,2.23-5.25,6.53,11.15,6.53,11.15c0,0-2.55-2.71-2.23-.16.08,1.4,1.16,2.54,2.55,2.7"/>
  </g>
  <g id="freepik--Device--inject-37">
    <polygon class="cls-8" points="354.34 180.65 230.37 180.65 209.2 265.75 333.18 265.75 354.34 180.65"/>
    <rect class="cls-8" x="147" y="265.75" width="184.88" height="6.05"/>
    <rect class="cls-8" x="209.2" y="265.75" width="123.98" height="6.05"/>
    <polygon class="cls-8" points="355.72 180.65 231.74 180.65 210.57 265.75 334.55 265.75 355.72 180.65"/>
    <ellipse class="cls-13" cx="282.44" cy="224.82" rx="17.68" ry="17.51"/>
    <path class="cls-1" d="m268.07,227.52c-.37-.17-.66-.48-.8-.87-.16-.41-.16-.87,0-1.28.18-.46.54-.82,1-1l7.49-3c.25-.11.51,0,.79.33.25.28.4.63.43,1,.01.36-.19.7-.51.87l-6.28,2.44,6.3,2.53c.27.18.42.5.39.82-.01.36-.14.71-.36,1-.24.32-.48.43-.73.33l-7.72-3.17Z"/>
    <path class="cls-1" d="m279.76,231.71c-.21-.17-.33-.42-.32-.69.04-.36.13-.72.24-1.06l4.16-12c.26-.9.63-1.35,1.11-1.35.26,0,.52.09.72.26.2.2.3.47.29.75-.03.34-.1.68-.23,1l-4.35,12.7c-.1.42-.48.7-.91.68-.26,0-.52-.11-.71-.29Z"/>
    <path class="cls-1" d="m287.93,230.41c-.22-.29-.35-.64-.36-1-.03-.32.12-.64.39-.82l6.3-2.53-6.28-2.44c-.32-.17-.52-.51-.51-.87.03-.37.18-.72.43-1,.28-.33.54-.44.79-.33l7.49,3c.36.14.67.39.88.72.19.28.29.6.29.94-.01.31-.1.62-.26.89-.15.27-.38.48-.66.6l-7.77,3.23c-.25.04-.49-.07-.73-.39Z"/>
  </g>
  <g id="freepik--Desk--inject-37">
    <rect class="cls-3" x=".5" y="270.46" width="401.33" height="6"/>
  </g>
</svg>